<!-- Generated by IcoMoon.io -->
<svg version="1.1" xmlns="http://www.w3.org/2000/svg" width="48" height="48" viewBox="0 0 48 48">
<title>IcoMoon</title>
<path d="M12.166 24c0-3.066 2.486-5.552 5.552-5.552s5.552 2.486 5.552 5.552c0 3.066-2.486 5.552-5.552 5.552s-5.552-2.486-5.552-5.552zM24 0c-13.255 0-24 10.745-24 24s10.745 24 24 24c13.255 0 24-10.745 24-24s-10.745-24-24-24zM17.784 44.966c-7.217-4.199-12.069-12.015-12.069-20.966s4.852-16.768 12.069-20.966c7.219 4.198 12.075 12.014 12.075 20.966s-4.855 16.768-12.074 20.966z"></path>
</svg>
