<?xml version="1.0" encoding="UTF-8" standalone="no"?>
<!-- Created with Inkscape (http://www.inkscape.org/) -->

<svg
   xmlns:dc="http://purl.org/dc/elements/1.1/"
   xmlns:cc="http://creativecommons.org/ns#"
   xmlns:rdf="http://www.w3.org/1999/02/22-rdf-syntax-ns#"
   xmlns:svg="http://www.w3.org/2000/svg"
   xmlns="http://www.w3.org/2000/svg"
   xmlns:sodipodi="http://sodipodi.sourceforge.net/DTD/sodipodi-0.dtd"
   xmlns:inkscape="http://www.inkscape.org/namespaces/inkscape"
   width="210mm"
   height="297mm"
   viewBox="0 0 210 297"
   version="1.1"
   id="svg8"
   inkscape:version="0.92.4 (5da689c313, 2019-01-14)"
   sodipodi:docname="Logo.svg">
  <defs
     id="defs2" />
  <sodipodi:namedview
     id="base"
     pagecolor="#ffffff"
     bordercolor="#666666"
     borderopacity="1.0"
     inkscape:pageopacity="0.0"
     inkscape:pageshadow="2"
     inkscape:zoom="0.35"
     inkscape:cx="400"
     inkscape:cy="445.71429"
     inkscape:document-units="mm"
     inkscape:current-layer="layer1"
     showgrid="false"
     inkscape:window-width="1920"
     inkscape:window-height="986"
     inkscape:window-x="-11"
     inkscape:window-y="-11"
     inkscape:window-maximized="1" />
  <metadata
     id="metadata5">
    <rdf:RDF>
      <cc:Work
         rdf:about="">
        <dc:format>image/svg+xml</dc:format>
        <dc:type
           rdf:resource="http://purl.org/dc/dcmitype/StillImage" />
        <dc:title></dc:title>
      </cc:Work>
    </rdf:RDF>
  </metadata>
  <g
     inkscape:label="Layer 1"
     inkscape:groupmode="layer"
     id="layer1">
    <path
       id="path10"
       style="fill:#000080;stroke-width:0.26458332"
       d="M 76.351336,-1.6011574 A 75.595236,73.705359 0 0 0 0.75595238,72.104421 75.595236,73.705359 0 0 0 76.351336,145.80948 75.595236,73.705359 0 0 0 151.9462,72.104421 75.595236,73.705359 0 0 0 76.351336,-1.6011574 Z"
       inkscape:connector-curvature="0" />
    <ellipse
       id="path12"
       cx="36.663685"
       cy="143.54167"
       rx="21.544643"
       ry="20.410715"
       style="stroke-width:0.26458332;fill:#cccccc" />
    <path
       id="path14"
       transform="scale(0.26458333)"
       style="stroke-width:0.99999994;fill:#ffff00"
       d="m 896.24219,574.83398 c -0.10742,1.34095 -0.20113,2.64384 -0.25391,3.875 0.0639,0.74646 0.11529,1.17473 0.17969,1.83204 0.0888,-0.0583 0.17241,-0.1227 0.26367,-0.17774 0.50109,0.96968 1.34112,3.98749 1.50391,2.9082 0.11901,-0.78838 -0.84812,-4.92949 -1.69336,-8.4375 z m -106.09375,5.76172 a 434.28562,394.28571 0 0 0 -344.4336,384.78125 434.28562,394.28571 0 0 0 34.95899,153.91995 c 5.25694,-0.083 10.49443,0.1691 15.63672,1.5508 1.63536,2.7818 -0.39393,-0.3841 8.20703,0.8125 3.24521,0.4514 11.58773,2.9913 14.33008,4.3789 0.45108,0.2282 0.11055,1.2799 0.60351,1.3925 2.10248,0.4805 4.31145,0.1482 6.4668,0.2227 2.44645,0.5342 4.92556,0.9373 7.33984,1.6016 0.3786,-1.2947 0.75139,-2.6002 1.13086,-3.8789 0.35225,-1.1875 2.47622,0 3.71485,0 10.97794,0 21.95565,0.01 32.93359,-0 10.25322,-0.011 20.50666,0.027 30.75977,0.051 9.53241,-0.077 19.08194,-0.4232 28.60937,-0.031 3.55749,-2.4585 8.35627,-5.0837 10.75195,-5.6074 2.77531,-0.6068 5.65054,-0.5791 8.47657,-0.8692 8.89194,1.0282 17.79876,0.9438 26.72461,0.7559 8.64751,-0.1142 17.29722,7e-4 25.94531,0 8.56622,-0.019 17.13295,-0.015 25.69922,-0.012 h 25.71093 c 2.33825,-0.4656 16.07611,0.7812 17.14258,0 0.48898,-0.3581 0.0337,-0.4296 -0.74023,-0.4063 -0.24489,0.238 -0.35278,0.2743 -0.24219,0.01 -1.0606,0.053 -2.55288,0.2381 -3.32031,0.2031 1.63319,-1.0306 3.26531,-2.0612 4.89843,-3.0918 0.0687,-0.1201 0.13306,-0.2201 0.20118,-0.3379 -0.92898,-0.435 0.47979,-1.8773 1.66015,-2.7109 5.76489,-8.8925 10.10557,-9.1662 23.14844,-8.9883 0.10024,0.014 0.18583,0.027 0.28516,0.041 -0.96287,-8.6207 -2.05329,-17.2143 1.92578,-25.4004 0.949,-1.8861 1.48495,-4.0454 2.84765,-5.6582 0.3258,-0.3855 1.21427,1.1871 1.34375,0.6992 0.49251,-1.8555 0,-3.8399 0,-5.7597 v -26.0254 -38.3008 c 0,-10.58228 8e-5,-21.16579 0,-31.74805 -1.8e-4,-12.42864 -9.4e-4,-24.85652 0,-37.28516 0,-11.30857 -0.007,-22.61725 0,-33.92578 0.0151,-10.2788 0.0224,-20.55729 -0.0449,-30.83594 7.6e-4,-10.62954 0.38181,-21.25787 0.084,-31.88476 -0.77416,-10.33134 -2.7268,-22.61542 2.8164,-31.92383 -0.001,-11.29361 0.004,-22.58725 0.008,-33.88086 -0.0189,-10.32484 -0.077,-20.65019 0.0488,-30.97461 0.0745,-11.40302 -0.42769,-22.7816 -0.33203,-34.18164 0.27099,-2.92706 0.81483,-11.75889 1.79297,-14.4707 0.11679,-0.32391 1.03235,0.23846 1.02539,-0.10547 -0.0692,-3.44444 -5.8402,-5.74101 -4.67773,-9.21485 -3.09283,-10.69121 -4.13873,-10.81682 -3.75391,-15.24414 -3.31374,-3.18267 -5.98445,-7.03887 -7.51953,-11.88281 -1.33755,-4.22058 -0.16448,-8.73183 0.69727,-13.20703 -0.29268,-0.95841 -0.5916,-1.94689 -0.94532,-3.1582 -0.37417,-1.28172 0.17546,-2.66906 0.14258,-4.00391 -0.14702,-5.91594 -1.37238,-11.69693 -3.20508,-17.31055 -0.36812,-4.46679 -1.57586,-8.85126 -1.84961,-13.31836 -0.51083,-8.33645 1.28224,-16.6075 2.9961,-24.78125 z m 65.99609,1.72266 c -0.0462,0.28315 -0.0972,0.51621 -0.14258,0.80859 -0.0529,0.34075 -0.0394,0.8741 -0.002,1.43946 0.17108,0.22377 0.34368,0.44669 0.51562,0.66992 0.055,-1.0197 0.038,-2.03552 -0.37109,-2.91797 z m -39.44726,10.72461 c -0.42908,1.95826 -0.8052,3.91985 -1.00977,5.87695 2.26573,-0.0169 5.01362,0.30233 7.7793,0.70313 -0.59117,-1.10529 -1.15544,-2.22007 -1.63477,-3.35743 -1.95128,-2.20251 -3.65308,-3.14129 -5.13476,-3.22265 z m 73.74023,13.7168 c -0.16246,0.22461 -0.3279,0.44522 -0.49219,0.66796 0.0192,0.7203 0.002,1.43768 -0.0566,2.15039 0.25524,-0.29656 0.50819,-0.59415 0.76367,-0.89062 -0.0157,-0.11904 -0.0312,-0.18836 -0.0469,-0.31445 -0.0593,-0.47837 -0.11164,-1.0729 -0.16797,-1.61328 z m -2.45703,8.7539 c -0.26857,0.51588 -0.54154,1.03077 -0.80859,1.54688 0.50634,0.008 1.01327,0.0148 1.51953,0.0195 0.0897,-0.46744 0.16483,-0.97014 0.29297,-1.35352 -0.29825,-0.0918 -0.6501,-0.15326 -1.00391,-0.21289 z m 271.94143,636.17383 c -4.124,1.3296 -8.2525,2.6468 -12.3887,3.9375 -0.6841,0.2135 -1.3704,0.4201 -2.0547,0.6328 -1.6833,0.8418 -3.4994,1.7699 -5.4277,2.7637 7.4891,-2.2458 13.2211,-4.4622 19.8711,-7.334 z m -223.52932,34.1484 c -0.28977,0.085 -0.7163,0.2102 -1,0.293 0.33754,-0.087 0.67423,-0.1768 1.01172,-0.2637 -0.004,-0.01 -0.008,-0.02 -0.0117,-0.029 z m -197.17774,28.8575 c -0.40771,0.1568 -0.81697,0.3097 -1.22461,0.4668 -1.35016,0.5201 -2.63296,1.0516 -3.8789,1.5859 2.05085,0.3512 3.94295,0.6172 5.64453,0.7812 0.0508,-1.3036 -0.14301,-2.2272 -0.54102,-2.8339 z" />
    <path
       style="fill:#00ff00;stroke-width:0.26458332"
       id="path76"
       d="m 14.53469,42.056531 c 2.220566,1.339921 4.664678,2.623235 7.315213,2.770471 0.523628,0.02909 1.047532,-0.05296 1.571298,-0.07944 3.124603,-0.207626 5.944268,-1.405893 8.768147,-2.6441 2.346899,-1.479833 4.841753,-2.453921 7.579199,-2.85101 2.975909,-0.298225 5.339302,1.506691 7.865266,2.754466 2.384552,0.945153 4.59631,2.20952 6.985415,3.149581 2.662047,1.310392 4.215564,2.680306 5.460661,5.374532 0.844857,2.635443 0.831522,5.427263 0.870307,8.1652 -0.01712,2.823784 0.05824,5.652207 -0.100293,8.472379 -0.447243,3.082012 -1.897364,5.4248 -4.266895,7.390027 -2.304362,1.436642 -4.488146,2.582801 -5.97512,4.9248 -1.033571,2.377655 -1.031714,5.014979 -1.086694,7.562649 -0.01545,2.745018 1.222587,5.194739 2.578386,7.504144 0.867703,1.624341 1.94437,3.112165 3.066714,4.56578 0,0 -9.572183,5.7006 -9.572183,5.7006 v 0 c -1.154928,-1.48714 -2.262603,-3.01353 -3.144068,-4.68362 -1.459878,-2.467333 -2.786597,-5.116961 -2.86699,-8.041734 0.02204,-2.694114 0.03866,-5.423273 0.821272,-8.027923 1.238652,-2.709535 3.22005,-4.062884 5.82147,-5.404962 2.659764,-1.669274 3.846545,-3.47183 4.653222,-6.496552 0.234455,-2.790672 0.09307,-5.596575 0.145116,-8.394719 -0.01823,-2.586945 0.01191,-5.228312 -0.689612,-7.739602 -1.039337,-2.381588 -2.617444,-3.618661 -4.985367,-4.66077 -2.395246,-0.974048 -4.650896,-2.234933 -7.036011,-3.233163 -2.381084,-1.231316 -4.636403,-2.726008 -7.450606,-2.159601 -2.647506,0.594408 -5.02464,1.762861 -7.410281,3.037009 -2.884754,1.219552 -5.855855,2.230083 -9.027547,2.269739 -3.648843,-0.187989 -6.2840403,-1.315585 -9.3697437,-3.228335 0,0 9.4797247,-5.995847 9.4797247,-5.995847 z"
       inkscape:connector-curvature="0" />
    <path
       style="fill:#00ff00;stroke-width:0.26458332"
       id="path78"
       d="m 39.127292,95.297436 c -3.274629,-0.365152 -6.568588,-0.490503 -9.860211,-0.579356 -3.021293,-0.07886 -5.988107,-0.158839 -8.852594,0.918557 -2.876079,1.38825 -10.380963,5.044083 7.109834,-4.119181 0.410472,-0.215043 -0.737431,0.56656 -1.060911,0.898361 -0.93942,0.963583 -1.426087,2.103172 -1.897147,3.334022 -0.970409,3.039036 -0.527703,5.626771 0.456616,8.575941 1.095596,2.85846 3.512311,4.50739 5.71301,6.4299 1.315844,1.32675 0.710792,0.62336 1.81783,2.10786 0,0 -9.599451,5.69681 -9.599451,5.69681 v 0 c -1.003787,-1.32972 -0.44878,-0.68984 -1.675301,-1.91068 -2.387037,-2.01583 -4.794838,-3.94229 -5.974722,-6.96006 -1.138838,-3.23123 -1.684453,-5.7998 -0.848304,-9.20346 0.30473,-0.985657 0.466505,-1.661821 0.95091,-2.589019 2.636539,-5.046593 8.756443,-7.047304 13.826334,-9.079005 2.963876,-0.723453 6.007211,-0.760645 9.044998,-0.604205 3.333808,0.117779 6.664412,0.294873 9.988407,0.581602 0,0 -9.139298,6.501913 -9.139298,6.501913 z"
       inkscape:connector-curvature="0" />
    <path
       style="fill:#00ff00;stroke-width:0.26458332"
       id="path80"
       d="m 30.13611,117.56604 c 0.11738,0.48787 0.234757,0.97574 0.352134,1.46361 0,0 -9.792155,5.3097 -9.792155,5.3097 v 0 c -0.132265,-0.46484 -0.26453,-0.92968 -0.396794,-1.39452 0,0 9.836815,-5.37879 9.836815,-5.37879 z"
       inkscape:connector-curvature="0" />
    <path
       style="fill:#00ff00;stroke-width:0.26458332"
       id="path82"
       d="m 28.559815,113.72819 c 0.866347,2.95573 2.012466,5.80984 2.809166,8.78715 0.365525,1.31343 0.944711,2.55003 1.458844,3.80857 0,0 -9.737356,5.44475 -9.737356,5.44475 v 0 c -0.528588,-1.3068 -1.125183,-2.58902 -1.520282,-3.94553 -0.740963,-3.0006 -1.840118,-5.88074 -2.899256,-8.78081 0,0 9.888884,-5.31413 9.888884,-5.31413 z"
       inkscape:connector-curvature="0" />
    <path
       style="fill:#00ff00;stroke-width:0.26458332"
       id="path84"
       d="M 14.169037,101.68322 C 11.445422,99.764687 8.2332429,98.965789 5.0832919,98.070251 2.0652793,97.034306 0.51554395,95.832691 -0.64694246,92.866442 -1.3152361,90.218629 -1.2420223,87.463364 -1.2486102,84.753293 -1.3622248,82.136797 -1.040489,79.544417 -0.78155511,76.947918 -0.25903955,74.558939 0.61348371,72.241274 1.42314,69.931724 2.4023398,67.362519 3.0012317,64.660975 3.4892625,61.96055 c 0.462529,-2.71476 0.4040579,-5.46817 0.9633619,-8.166251 0.291506,-1.364694 1.1278886,-2.180716 2.1931437,-2.984769 0,0 10.4250839,-4.10622 10.4250839,-4.10622 v 0 c -0.988924,0.638347 -2.076622,1.084286 -2.532974,2.256298 -0.261115,0.902398 -0.458467,1.456621 -0.565064,2.420713 -0.208642,1.887021 -0.06377,3.821403 -0.46826,5.69328 -0.464122,2.754892 -1.039371,5.506193 -1.942641,8.153791 -0.472273,1.114097 -0.741454,2.249205 -1.14922,3.386887 -0.270218,0.753917 -0.6180795,1.479028 -0.8762552,2.237157 -0.1249809,0.367001 -0.2047592,0.747877 -0.3071389,1.121815 -0.2619925,2.56876 -0.6572713,5.129125 -0.5463371,7.719875 -0.00722,2.579706 -0.072584,5.198282 0.456079,7.736041 0.9563152,2.68546 2.4540172,3.500541 5.1231252,4.357656 3.204462,0.934418 6.359135,1.976315 9.250672,3.687508 0,0 -9.343801,6.208889 -9.343801,6.208889 z"
       inkscape:connector-curvature="0" />
    <path
       style="fill:none;stroke:#000000;stroke-width:0.26458332px;stroke-linecap:butt;stroke-linejoin:miter;stroke-opacity:1"
       d="m 11.561913,65.227392 c 2.9496,-0.101592 5.901281,-0.455062 8.848801,-0.304773 0.251657,0.01283 0,0.503968 0,0.755951 0,0.503968 0,1.007936 0,1.511906 0,2.267858 0,4.535713 0,6.80357 0,0.09385 -0.05029,5.216237 0,5.291667 0.395345,0.593018 1.027791,0.988835 1.511905,1.511906 2.457143,2.654868 4.873711,5.347004 7.310566,8.020505"
       id="path86"
       inkscape:connector-curvature="0" />
    <path
       style="fill:#00ff00;stroke-width:0.26458332"
       id="path88"
       d="m 34.9206,69.429052 c -2.356668,3.014089 -4.215376,6.281643 -5.429711,9.906569 -0.406746,2.143961 -1.445212,4.997103 -0.806397,7.194878 0.07331,0.252217 0.266785,0.45252 0.400177,0.678778 0.162613,0.06562 0.312484,0.196802 0.487839,0.196863 0.471702,1.64e-4 0.968785,-0.46696 1.291685,-0.700751 -2.947657,1.652457 -5.859756,3.370005 -8.842968,4.957373 -0.335908,0.178737 0.614661,-0.453453 0.883878,-0.722344 0.302827,-0.302459 0.549795,-0.656103 0.824693,-0.984155 1.677521,-2.375701 1.80193,-5.312714 2.537133,-8.03162 2.00017,-5.268558 7.131139,-6.308582 12.405184,-9.057132 0.29187,-0.152106 0.67032,-0.09419 0.987359,-0.0058 0.345731,0.09636 0.620795,0.360387 0.931193,0.540578 2.096834,2.510079 1.968125,5.68759 1.513203,8.741601 -1.141738,5.181793 -2.050048,3.966691 -10.447663,7.95691 -0.374785,0.17808 -1.372756,-2.414638 -1.468528,-2.637539 -1.060915,-2.622399 -1.39107,-5.421138 -1.774901,-8.197175 -0.563153,-3.163374 -0.584748,-5.34353 1.460103,-7.962255 9.11234,-5.36268 11.559582,-9.663316 12.666546,-0.53545 0.205504,2.016979 0.213661,4.046696 0.244959,6.071759 0,0 -9.917366,5.066339 -9.917366,5.066339 v 0 c -0.01119,-1.989203 -0.02732,-3.980667 -0.19689,-5.964166 -0.118708,-1.061471 -0.121989,-2.470203 -0.638466,-3.448777 -0.277482,-0.525751 -0.746488,-0.125434 -0.692245,-0.158843 2.934792,-1.807612 5.90379,-3.55909 8.855688,-5.338635 -2.490951,2.144127 -2.441085,3.987292 -1.932151,7.072759 0.396711,2.662299 0.618945,5.379344 1.683194,7.887605 0.217308,0.456163 0.373883,0.943369 0.631547,1.378013 0.03203,0.05402 0.02442,-0.218233 -0.02951,-0.186065 -3.093915,1.845252 -6.06054,3.902593 -9.190934,5.685261 -0.221387,0.126074 0.277601,-0.430422 0.376005,-0.66542 0.156239,-0.373115 0.256397,-0.767307 0.384595,-1.150963 0.481881,-2.404954 0.938205,-5.365168 -0.857287,-7.367686 -3.257147,-0.391985 -12.152432,6.412815 7.272878,-5.006369 0.298362,-0.175392 -0.591114,0.365964 -0.852091,0.593281 -0.857906,0.747244 -0.809223,0.899189 -1.339752,1.92314 -0.933339,2.753828 -0.855239,5.794269 -2.374731,8.354747 -2.718885,4.484066 -6.196057,4.988441 -11.93515,8.104762 -0.965392,0.524206 -2.027267,-0.157533 -2.656004,-0.819833 -0.194373,-0.357468 -0.458537,-0.685051 -0.58312,-1.072406 -0.751367,-2.336165 0.268267,-5.360686 0.674331,-7.662244 1.083304,-3.681798 2.821774,-7.069563 5.184415,-10.106395 0,0 10.269259,-4.529166 10.269259,-4.529166 z"
       inkscape:connector-curvature="0" />
    <path
       style="fill:#00ff00;stroke-width:0.26458332"
       id="path90"
       d="M 16.526301,99.099588 C 13.763893,97.163145 10.851947,95.51531 8.3967499,93.172871 6.3935511,90.760155 5.9090313,87.799078 5.6550414,84.778277 c 0.2337906,-2.267648 0.043947,-1.094533 0.6075161,-3.512981 0,0 9.9924145,-4.796882 9.9924145,-4.796882 v 0 c -0.558686,2.233935 -0.330651,1.173704 -0.707139,3.175648 0.179727,2.743464 0.493486,5.496607 2.322982,7.691646 2.451929,2.333533 5.410876,3.914233 8.182173,5.824839 0,0 -9.526687,5.939041 -9.526687,5.939041 z"
       inkscape:connector-curvature="0" />
    <path
       style="fill:#00ff00;stroke-width:0.26458332"
       id="path92"
       d="m 11.633856,91.510944 c 0.09231,-3.444999 0.04819,-6.891522 0.04819,-10.337241 0.03036,-3.067281 -0.592293,-6.115114 -1.15126,-9.122887 -1.2220041,-3.025558 -1.1115858,-6.16999 -0.6458109,-9.3282 0.5019349,-1.887749 0.2009699,-0.961284 0.9022029,-2.779614 0,0 10.123644,-4.664348 10.123644,-4.664348 v 0 c -0.755177,1.676731 -0.415132,0.828464 -1.022353,2.543919 -0.521514,3.056276 -0.825324,6.054471 0.470513,8.986924 0.589912,3.068437 1.206991,6.19392 1.220874,9.32102 4e-6,3.429344 -0.04461,6.859526 0.04819,10.288132 0,0 -9.994193,5.092295 -9.994193,5.092295 z"
       inkscape:connector-curvature="0" />
    <path
       style="fill:#00ff00;stroke-width:0.26458332"
       id="path94"
       d="m 4.8248252,86.312485 c 0.3128663,-3.205504 0.350892,-6.439209 1.0082318,-9.597541 0.8649615,-3.301264 1.969194,-6.520095 3.0651532,-9.747937 0.9160639,-2.521882 1.0179907,-5.198401 1.2808278,-7.837088 0.288525,-3.052527 0.859944,-5.237001 3.157318,-7.353194 5.447617,-3.78841 11.032299,-7.344995 17.538952,-8.5768 2.836945,-0.412829 5.731026,-0.57 8.590844,-0.356719 3.893386,0.897768 6.137751,2.565493 8.448204,5.747732 2.006729,2.469255 2.994541,5.490273 3.753686,8.530306 0.687099,2.827028 0.814644,5.732566 0.907195,8.626496 0.04295,2.834294 0.04437,5.669516 0.0295,8.504116 -0.04624,0.849866 -0.07468,2.091505 -0.273745,2.93043 -0.161658,0.681291 -0.502979,1.708002 -1.199148,2.095426 -10.645917,5.924521 -7.124673,7.251861 -11.879683,4.916466 -2.806488,-2.227792 -4.466312,-5.398971 -5.501338,-8.761603 -0.814726,-2.951858 -0.897276,-6.013585 -0.958273,-9.053182 -0.0113,-2.810396 0.0053,-5.620972 0.01627,-8.431402 0.207703,-3.301749 -1.413338,-5.000874 -4.121097,-6.56431 -2.543824,-1.148535 -5.412498,-1.430983 -8.174886,-1.250416 0.728568,-1.043794 -4.916313,2.367968 -3.589292,1.629016 14.407119,-8.0226 9.309642,-5.755357 6.104697,-2.897116 -1.991803,1.898973 -2.518119,4.383542 -2.823961,7.0055 -0.101731,1.880618 -0.389684,3.84035 0.242802,5.666758 0.417308,1.205045 1.098842,2.257094 1.729057,3.35447 2.363553,3.383523 4.641632,6.860839 7.478788,9.872228 0.371888,0.285123 0.710338,0.620197 1.115666,0.855366 0.440505,0.255577 1.103926,0.481015 1.621401,0.24207 0.241377,-0.111455 0.84455,-0.63945 0.610592,-0.513164 -8.900656,4.804343 -11.243803,7.60517 -8.320286,4.30553 1.051099,-2.202048 1.288835,-4.708147 1.639462,-7.101798 0.355285,-2.531239 0.406471,-5.088877 0.44709,-7.640222 0.04737,-2.548895 0.30797,-5.176205 -1.164737,-7.379943 -1.098727,-0.828352 -2.599542,-1.316458 -3.981931,-0.929347 -0.392017,0.109779 -1.451863,0.735857 -1.098538,0.533644 2.778893,-1.590405 5.584904,-3.13295 8.377356,-4.699423 -3.048794,1.899319 -4.717033,4.308673 -5.82509,7.659134 -0.536172,2.277337 -1.147652,4.728895 -0.01781,6.899706 0.285241,0.200917 0.702198,0.672992 1.144286,0.368462 0.20445,-0.140836 0.616061,-0.744848 0.395337,-0.631204 -3.048734,1.569691 -5.915811,3.47685 -8.965902,5.043901 -0.329483,0.16928 0.513302,-0.535253 0.748049,-0.821799 0.247508,-0.302125 0.46457,-0.627959 0.696856,-0.94194 1.420695,-2.297745 1.737729,-5.016887 2.216629,-7.622543 0.419675,-2.355236 0.602579,-4.745085 0.627022,-7.135281 -0.221988,-4.011149 -0.187922,-1.317183 10.045022,-4.913989 0.318776,-0.112046 -0.01307,0.675661 -0.01788,1.013518 -0.01958,1.37338 -0.09847,2.722578 -0.218541,4.091064 -0.297857,2.950218 -0.437737,5.912451 -0.520872,8.875445 0.160089,2.120866 -0.354931,4.344421 0.0172,6.45056 -3.350696,1.490319 -6.587343,3.26939 -10.052086,4.470959 -0.312588,0.108402 0.01655,-0.661509 0.02136,-0.992326 0.02449,-1.68539 0.06171,-3.338081 0.218421,-5.018198 0.264611,-2.906935 0.360024,-5.807083 0.903697,-8.679101 0.294029,-1.676958 1.095558,-4.41466 -0.473173,-5.7757 -0.223008,-0.193482 -0.53819,-0.242946 -0.807284,-0.364419 -0.310749,-0.01193 -0.631193,-0.11376 -0.932247,-0.03582 -0.309109,0.08002 -1.102776,0.644001 -0.82296,0.490201 2.884437,-1.585426 5.718407,-3.264231 8.63728,-4.785325 0.36067,-0.187955 -0.659664,0.482666 -0.942186,0.775223 -0.845102,0.875123 -0.845731,1.135407 -1.333144,2.230523 -0.213951,1.426974 -0.215335,0.74282 -0.04677,2.051928 0,0 -9.889107,5.242457 -9.889107,5.242457 v 0 c -0.315273,-1.652164 -0.246086,-0.791896 -0.169063,-2.583614 0.142216,-0.477483 0.236161,-0.97209 0.426647,-1.432446 0.235819,-0.569921 0.960182,-1.857264 1.544251,-2.216441 3.48674,-2.144192 7.024439,-4.213098 10.649505,-6.114101 0.333603,-0.174945 0.755113,-0.113101 1.128361,-0.06227 0.400521,0.05455 0.769226,0.24873 1.15384,0.373097 0.349758,0.261448 0.753277,0.463296 1.049271,0.784347 1.624058,1.761543 1.3501,4.438737 0.849503,6.559965 -0.07799,0.376714 -0.512598,2.429447 -0.556543,2.825078 -0.211161,1.901047 -0.09664,3.846058 -0.385672,5.743964 -0.149339,1.649217 -0.238525,3.247932 -0.217313,4.904264 0.0042,0.324191 0.288327,0.791662 0.01921,0.972463 -3.2074,2.15479 -6.702892,3.846218 -10.054338,5.769326 0.327505,-2.154208 -0.08456,-4.387937 0.1278,-6.55299 0.06346,-2.983402 0.206796,-5.962828 0.478861,-8.935318 0.03367,-0.366115 0.218471,-2.309323 0.23193,-2.709484 0.198921,-5.913946 -2.134879,-1.48657 9.999961,-7.895553 0.115567,-0.06103 -0.03904,0.258455 -0.05857,0.387683 -0.138004,2.438146 -0.129337,4.892733 -0.598387,7.300899 -0.477549,2.719827 -0.844222,5.512057 -2.003658,8.044135 -2.920478,4.605367 -4.016624,3.967777 -11.51251,8.202248 -0.883112,0.498877 -2.011534,-0.695788 -2.481985,-1.198084 -1.359717,-2.677126 -0.901939,-4.855086 -0.313318,-7.694557 1.010829,-3.644892 2.408211,-6.096328 5.484016,-8.416406 3.397002,-1.925778 10.58857,-8.931513 15.817777,-5.384633 0.349612,0.237135 0.636079,0.556098 0.954122,0.834149 1.662697,2.659729 1.49698,4.939265 1.447344,7.9718 -0.03039,2.590295 -0.05135,5.188051 -0.369903,7.762587 -0.355386,2.520003 -0.695711,5.067456 -1.419685,7.509803 -2.052352,4.63581 -0.391274,1.428298 -10.756478,7.149214 -0.476423,0.262953 -1.367266,0.03719 -1.807711,-0.156176 -1.020055,-0.447818 -1.328759,-0.84651 -2.199155,-1.600192 -2.817842,-3.134857 -5.122016,-6.67036 -7.56025,-10.099638 -0.701025,-1.176514 -1.444909,-2.302483 -1.940377,-3.588644 -0.7472457,-1.93974 -0.547338,-3.975282 -0.452978,-6.002036 0.245598,-2.780768 0.628033,-5.531418 2.509097,-7.732421 3.836552,-3.855754 7.26587,-5.082553 12.880653,-8.340873 1.210806,-0.702646 2.530349,-1.096645 3.921989,-1.212247 2.927763,0.02724 5.914202,0.359979 8.518263,1.799487 2.67408,1.752018 4.966602,4.10011 4.713541,7.537484 -0.01619,2.806303 -0.05201,5.612527 -0.03817,8.418936 0.02347,2.946622 0.07719,5.918777 0.780301,8.797592 0.883796,3.020943 2.277885,6.066012 5.021098,7.824938 4.321281,0.714571 0.700294,-0.08866 -7.823792,5.404397 -0.296262,0.190916 0.741119,-0.06028 1.021146,-0.274306 0.663604,-0.507185 0.760034,-1.616948 0.848683,-2.321626 0.05947,-0.472776 0.07081,-0.950371 0.106217,-1.425554 -0.0013,-2.824933 0.03414,-5.650026 -0.0163,-8.474787 -0.05865,-2.821313 -0.168952,-5.656355 -0.779385,-8.422489 -0.70892,-2.91039 -1.597118,-5.804331 -3.535913,-8.157403 -2.143649,-2.927585 -4.247946,-4.387252 -7.916611,-4.911437 -2.815971,-0.07262 -5.652433,0.04141 -8.421954,0.592839 -1.437136,0.342096 -2.816551,0.718799 -4.174042,1.31513 -0.427083,0.187611 -1.658379,0.852099 -1.258797,0.611405 4.548509,-2.739843 11.728588,-6.793291 7.153475,-4.205672 -0.350172,0.199242 -0.734504,0.347822 -1.050517,0.597731 -1.764214,1.395175 -2.294071,3.814675 -2.488833,5.918407 -0.341677,2.694252 -0.286313,5.462087 -1.202062,8.058115 -1.054008,3.220437 -2.298525,6.371267 -3.127908,9.66611 -0.805185,3.042693 -0.75957,6.192877 -1.02186,9.316162 0,0 -10.0051112,5.097859 -10.0051112,5.097859 z"
       inkscape:connector-curvature="0" />
    <path
       style="fill:#00ff00;stroke-width:0.26458332"
       id="path96"
       d="m 36.226456,94.399964 c -2.180897,-2.359208 -3.80601,-5.100995 -5.261102,-7.943469 -1.075862,-2.440072 -2.043925,-4.877811 -3.36917,-7.198614 0,0 9.607053,-5.550675 9.607053,-5.550675 v 0 c 0.632796,1.069277 1.176112,1.913903 1.683615,3.042446 0.619834,1.378334 0.961509,2.878352 1.729549,4.193958 1.441371,2.755482 2.959233,5.483572 5.226804,7.664284 0,0 -9.616749,5.79207 -9.616749,5.79207 z"
       inkscape:connector-curvature="0" />
    <path
       style="fill:#00ff00;stroke-width:0.26458332"
       id="path98"
       d="m 109.46333,89.93548 c -2.63944,2.178055 -4.36324,5.02712 -5.40112,8.246446 -0.65839,2.664734 -0.38463,5.254454 0.63014,7.768764 1.17088,2.16722 3.02566,3.19895 5.33241,3.76782 2.7673,0.82653 3.98224,2.13593 5.34204,4.58232 1.38856,2.49804 1.80946,5.27808 2.08246,8.07733 0.19411,2.52924 0.18946,5.06708 0.19416,7.60193 -0.0132,1.31297 -0.0193,2.62596 -0.0217,3.93899 0,0 -9.94578,5.06369 -9.94578,5.06369 v 0 c 0.006,-1.30935 0.009,-2.61868 0.003,-3.92804 0.0137,-2.50886 0.0297,-5.02054 -0.12022,-7.52609 -0.21303,-2.64569 -0.55755,-5.28807 -1.86559,-7.65053 -1.34492,-2.30022 -2.26016,-3.11159 -4.90097,-3.84116 -2.530918,-0.83265 -4.553401,-2.2267 -5.837296,-4.63532 -1.199124,-2.85227 -1.503969,-5.38818 -0.939062,-8.46041 0.975611,-3.587274 2.446112,-6.161456 5.047482,-8.84885 0,0 10.399546,-4.15689 10.399546,-4.15689 z"
       inkscape:connector-curvature="0" />
    <path
       style="fill:#00ff00;stroke-width:0.26458332"
       id="path100"
       d="m 93.760305,95.798049 c 2.299049,-3.091683 5.515705,-5.164013 8.670945,-7.267776 4.93775,-2.986133 9.59512,-6.821048 15.12633,-8.574897 0.92211,-0.292383 1.88992,-0.438902 2.83787,-0.611913 2.75354,-0.38477 5.54087,-0.352671 8.31458,-0.35333 3.65425,0.156123 7.16381,1.152528 10.69404,2.009323 2.88088,0.535146 4.93272,2.606577 7.30442,4.126804 1.01793,0.431279 1.94748,0.72436 3.04995,0.462307 0.34568,-0.08217 1.31605,-0.523045 1.00858,-0.344972 -9.80939,5.681157 -11.09731,6.959285 -7.89348,4.06432 0,0 10.29327,-4.363138 10.29327,-4.363138 v 0 c -2.89377,4.362839 -0.81127,1.565608 -11.3014,7.077665 -0.4872,0.255998 -1.85986,0.133649 -2.34484,0.03301 -0.85536,-0.17749 -1.4377,-0.52338 -2.21774,-0.901996 -2.236,-1.523606 -4.27097,-3.359148 -7.03557,-3.848674 -3.47378,-0.876782 -6.96657,-1.76716 -10.57869,-1.756177 -2.73123,0.01524 -5.48317,0.01196 -8.17561,0.533691 -1.1681,0.278976 -1.5724,0.3308 -2.70131,0.785024 -0.43183,0.173749 -1.66338,0.83218 -1.26496,0.591499 15.37808,-9.28969 8.58491,-4.986932 5.19587,-2.965076 -3.07708,2.06612 -6.38937,3.894986 -8.6893,6.89008 0,0 -10.292955,4.414224 -10.292955,4.414224 z"
       inkscape:connector-curvature="0" />
    <path
       style="fill:#00ff00;stroke-width:0.26458332"
       id="path102"
       d="m 104.55147,105.16762 c -0.46446,-3.36848 0.46591,-6.526779 1.66539,-9.628167 0.41465,-1.227296 1.61662,-2.17732 1.72406,-3.512492 0.0102,-0.126704 -0.18978,0.428302 -0.0749,0.37392 3.1828,-1.506509 6.27567,-3.196103 9.4135,-4.794152 -2.03141,1.620086 -2.83822,4.183523 -3.59365,6.567606 -0.97334,3.973701 -6.5899,16.508795 -12.19716,9.160295 -0.85173,-2.34013 -0.61115,-4.791942 0.13784,-7.113891 1.16487,-2.749042 3.10126,-4.838861 5.56148,-6.45909 4.7258,-2.647622 9.79169,-6.641558 15.53406,-7.32115 0.8313,-0.09838 1.92948,-0.05652 2.7692,-0.0444 2.44244,-0.02323 4.3607,0.970947 3.14914,3.626488 -4.03296,4.176252 -9.75247,6.739797 -15.43117,7.606355 -1.76269,0.231201 -3.83011,0.246041 -4.98491,-1.370348 -0.22203,-0.310775 -0.35169,-0.678098 -0.52754,-1.017149 -0.38174,-0.613087 -1.04397,-1.729166 -1.91494,-1.777788 -0.51194,-0.02858 -1.71694,1.117349 -1.26504,0.875104 2.93441,-1.572988 5.79989,-3.271303 8.69983,-4.906957 -2.21084,1.728928 -3.74651,4.118226 -5.5851,6.207418 -1.10231,1.21734 -3.48309,2.903871 -2.91464,4.881354 0.0713,0.248084 0.26954,0.440317 0.40431,0.660474 1.58808,2.026547 4.16041,2.44507 6.56336,2.802615 0.45343,2.64e-4 0.90696,0.01074 1.36029,0.0011 1.04734,-0.02212 1.81051,-0.0038 2.80428,-0.387911 0.46353,-0.179178 1.74781,-0.946795 1.31293,-0.706294 -8.72945,4.82761 -10.50078,6.64475 -7.07569,3.46397 1.93715,-2.32408 3.31079,-5.019911 4.6049,-7.734716 0.0139,-0.04493 0.47649,-1.003146 0.18419,-1.278744 -0.23166,-0.218424 -2.52913,1.258895 -1.69431,0.787106 2.85982,-1.616194 5.72184,-3.228467 8.58277,-4.8427 -2.54598,1.359397 -3.69941,3.651705 -4.4184,6.325928 -0.58904,3.005124 -0.54969,6.088186 -0.55885,9.137626 0.11061,8.88289 -3.24355,8.02451 -12.10158,13.21703 -2.41024,0.23779 -4.52004,-1.25538 -5.297265,-3.5308 -0.171791,-0.50293 -0.230087,-1.03773 -0.345128,-1.55659 -0.215828,-4.02149 1.779123,-6.45867 4.540223,-9.0768 2.42579,-2.07984 5.2378,-3.6066 7.8737,-5.387031 5.36014,-4.118192 11.01204,-8.414237 17.73989,-9.754254 3.13243,-0.61256 6.28073,-0.593561 9.41994,-0.09534 0.4891,0.161039 0.98729,0.29672 1.4673,0.483122 0.90639,0.351983 1.76789,0.810871 2.66356,1.18932 1.23216,0.520621 2.50534,0.905441 3.75357,1.38571 1.26758,0.405636 2.55576,1.043067 3.91988,1.052473 0.89894,0.0062 1.09624,-0.200647 1.83431,-0.582962 -2.99104,1.662621 -5.98208,3.325241 -8.97312,4.987862 0.4191,0.140237 1.26193,-2.130809 0.74889,-2.126792 -0.42954,0.0034 -0.84157,0.17278 -1.263,0.256 -2.35904,1.166558 -4.92651,1.710399 -7.50977,2.101765 -3.10239,0.26084 -4.96332,-0.378955 -7.35769,-2.310635 -1.05317,-0.769932 -1.72298,-2.087094 -2.93529,-2.65706 -0.28049,-0.131871 -0.60841,-0.210971 -0.91499,-0.165457 -0.32933,0.04889 -0.59948,0.289862 -0.89921,0.434793 2.89631,-1.57235 5.79263,-3.144698 8.68895,-4.717048 -0.32309,0.342469 -0.69284,0.646277 -0.96926,1.027407 -0.44419,0.612436 -1.40843,2.622245 -1.68751,3.209379 -0.86057,1.810457 -1.68612,3.639405 -2.4908,5.475203 -1.39607,3.016025 -1.92116,6.253115 -2.19401,9.532395 -0.29222,3.23129 0.0451,6.45555 0.30944,9.67393 0.23446,2.53379 0.37433,5.0652 0.16352,7.6029 -0.22955,2.32896 -0.32449,4.66678 -0.74869,6.97197 -0.55626,3.70931 -0.0418,0.6568 -9.87588,4.35192 -0.25486,0.0958 0.34367,-0.4229 0.50076,-0.64527 0.19519,-0.27629 0.3747,-0.56341 0.55519,-0.84951 0.49521,-0.78494 0.97338,-1.58051 1.46284,-2.36905 1.66671,-2.58208 3.55391,-5.02833 4.97521,-7.75767 1.11363,-2.6131 2.26396,-5.19935 3.61036,-7.70334 1.43141,-2.51846 2.4462,-5.22267 3.93972,-7.70791 1.6009,-2.54982 3.56967,-4.79399 6.00644,-6.55876 1.53987,-0.81197 13.67871,-10.888546 12.90794,-3.431712 -0.57938,2.372322 -1.19507,4.746152 -2.04826,7.036782 -0.99522,2.22611 -2.46362,4.25459 -4.62226,5.47898 -3.59956,2.04168 -7.23675,4.01633 -10.85513,6.02449 -0.42366,0.15883 -0.86257,0.28176 -1.27099,0.47647 -0.42759,0.20385 -1.64154,0.94623 -1.22812,0.71498 2.70942,-1.51554 5.35302,-3.15301 8.11631,-4.56795 0.50937,-0.26082 -0.9005,0.70778 -1.32567,1.0908 -1.13266,1.02037 -1.24237,1.23879 -2.19095,2.39187 -0.50497,0.93889 -3.10794,4.0611 -2.08644,5.08108 0.14694,0.009 0.3008,0.0738 0.44081,0.0282 0.41897,-0.1364 1.46594,-0.97484 1.08021,-0.76187 -2.94945,1.62846 -5.84145,3.36065 -8.8077,4.95831 -0.34831,0.18761 0.63731,-0.46964 0.94215,-0.72181 0.33789,-0.27952 0.65654,-0.58149 0.98481,-0.87223 1.92162,-1.85524 3.00357,-4.32116 3.82221,-6.81958 0.86705,-3.40086 1.00025,-6.92886 1.08917,-10.42061 -0.0473,-0.6913 0.21521,-2.65656 -0.94366,-2.89257 -0.53953,-0.10988 -1.94689,1.02969 -1.46173,0.76933 2.87953,-1.54528 5.7024,-3.19387 8.5536,-4.79081 -2.60224,1.79945 -4.23871,4.4067 -5.25845,7.34424 -0.24201,1.27103 -1.42862,5.76746 -0.23513,6.62426 2.77586,-2.82214 -0.13176,0.18971 -9.10435,4.70848 -0.2196,0.11059 0.38835,-0.31613 0.51825,-0.52488 0.56118,-0.90186 0.66091,-2.13196 0.82516,-3.14875 0.32671,-2.80464 0.32241,-5.63628 0.32879,-8.4562 0.028,-2.87369 -0.19126,-5.74974 0.32592,-8.58775 0.36652,-1.023982 0.73708,-2.590329 1.76514,-3.224416 4.81918,-2.97239 7.70239,-7.62359 12.39208,-5.587902 1.96914,1.86949 0.42147,4.052139 -0.46778,6.04874 -0.0666,0.279961 -0.16578,0.55413 -0.19986,0.839883 -0.0212,0.177847 -0.0591,0.384175 0.0357,0.53613 0.0117,0.01871 0.37513,-0.777179 0.36611,-0.772538 -8.32466,4.279513 -11.77634,7.470403 -8.33516,4.388683 2.49546,-2.510647 1.94698,-3.977087 0.20584,-6.823702 -1.08351,-1.238186 -2.27569,-2.24673 -3.99391,-2.313916 -0.41321,-0.01617 -0.84577,-5.29e-4 -1.23168,0.148167 -0.35977,0.138507 -1.27434,0.86206 -0.932,0.684805 2.92861,-1.516356 5.80121,-3.138535 8.70182,-4.7078 -0.54258,1.018305 -2.44011,3.890843 -1.7898,5.111999 0.062,0.116385 0.23539,0.118893 0.35309,0.178339 0.1725,-0.0078 0.35876,0.04457 0.51751,-0.02336 0.189,-0.08089 0.65094,-0.496951 0.47003,-0.399307 -3.06686,1.655302 -6.06441,3.437472 -9.13904,5.078301 -0.21168,0.11297 0.39319,-0.289213 0.53194,-0.48497 0.42152,-0.594728 0.5161,-1.225516 0.69896,-1.913438 0.25983,-1.229733 0.32375,-2.484998 0.40375,-3.735112 0,0 9.96511,-5.014312 9.96511,-5.014312 v 0 c -0.0485,1.300443 -0.10414,2.600677 -0.29507,3.890219 -0.0868,0.478388 -0.42317,2.850034 -0.84819,3.119096 -3.54899,2.246723 -7.65081,7.660581 -11.86998,5.388904 -0.234,-0.269232 -0.53787,-0.490987 -0.70198,-0.807699 -1.0058,-1.940967 0.94033,-4.262959 1.41438,-6.041448 3.13047,-1.996668 9.31397,-8.944533 14.49077,-6.213295 1.38133,0.728776 1.79526,1.357138 2.85174,2.477384 1.05854,1.708636 2.50236,4.013049 1.8374,6.144802 -0.13515,0.433263 -1.02517,1.629844 -1.28142,1.991603 -3.36279,3.44564 -1.67827,1.844353 -10.93845,6.7707 -0.46186,0.2457 -1.28231,-0.65682 -1.40003,-0.88113 -0.28929,-0.55124 -0.0975,-1.38976 -0.0398,-1.93265 0.142,-0.37566 0.26125,-0.76072 0.426,-1.126968 0.2326,-0.517083 1.58651,-2.372408 1.284,-2.979166 -0.0686,-0.137607 -0.24075,-0.191339 -0.36112,-0.287009 -3.37285,-0.332886 -11.32041,5.789213 7.23111,-5.007698 0.3033,-0.176524 -0.58322,0.396243 -0.83699,0.638652 -0.82873,0.791651 -0.76803,0.940358 -1.24108,1.996135 -0.71449,2.742875 -0.37313,5.567228 -0.43667,8.377864 -0.01,2.86072 0.004,5.72564 -0.22741,8.57943 -0.61705,4.90052 -3.04415,14.84083 -11.90708,9.70412 -0.18111,-0.25412 -0.42799,-0.47241 -0.54334,-0.76236 -0.79968,-2.01023 0.10679,-4.87349 0.3469,-6.91385 0.85908,-3.1108 2.43187,-5.91822 4.93001,-8.02394 3.54841,-2.0675 7.02826,-4.25744 10.64523,-6.202518 1.6858,-0.906563 3.18405,0.950182 3.44016,2.386658 0.0958,0.53753 0.053,1.09072 0.0795,1.63608 -0.10039,3.5714 -0.2278,7.16305 -0.94867,10.67406 -0.69785,2.63623 -1.75969,5.25335 -3.55609,7.34033 -3.6032,3.6669 -6.77093,4.76789 -12.24943,7.84519 -0.85741,0.48161 -1.71155,0.0455 -2.3857,-0.48384 -0.1781,-0.26075 -0.41497,-0.48991 -0.53431,-0.78226 -0.80973,-1.98362 1.34572,-4.02785 2.07617,-5.65638 4.04923,-5.6498 10.51282,-8.79906 16.86184,-11.41348 -2.76225,1.63677 -5.536,3.25426 -8.28674,4.9103 -0.40399,0.24322 0.84395,-0.42365 1.24534,-0.67114 1.61715,-0.99714 2.78027,-2.47372 3.66436,-4.13806 0.89826,-2.21046 1.44201,-4.50525 2.05894,-6.80394 0.0617,-0.21532 0.10209,-0.43797 0.18522,-0.64597 0.0369,-0.0924 0.16878,-0.14542 0.17085,-0.24495 0.008,-0.39362 -1.55303,0.622 -1.3189,0.34696 2.84724,-1.67086 5.69447,-3.341716 8.54171,-5.012576 -2.53433,1.570686 -4.58517,3.623146 -6.1999,6.144116 -1.63854,2.39931 -2.58268,5.09597 -3.95286,7.6404 -1.42471,2.45428 -2.59731,5.02792 -3.657,7.65532 -1.28685,2.82881 -3.18302,5.28607 -4.91264,7.85856 -0.20223,0.32135 -2.21746,3.87766 -2.36418,3.95547 -10.90856,5.78518 -11.64978,8.99743 -10.61804,4.91447 0.70406,-2.21768 0.65708,-4.55328 0.88443,-6.84864 0.24973,-2.48729 0.19084,-4.96164 -0.0388,-7.45335 -0.24815,-3.27219 -0.62094,-6.54576 -0.36407,-9.83079 0.1884,-3.39028 0.67401,-6.76191 2.07343,-9.89085 1.04565,-2.458723 2.20789,-4.861237 3.30734,-7.295758 0.24047,-0.532485 0.42266,-1.091928 0.69197,-1.610427 0.2359,-0.454181 0.546,-0.86579 0.819,-1.298686 3.54202,-2.052346 6.98952,-4.277235 10.62605,-6.157036 0.36544,-0.1889 0.83262,-0.06444 1.23383,0.0264 1.72918,0.391552 2.70745,2.161823 4.04049,3.153185 2.24292,1.669042 4.05237,1.95412 6.81383,1.562711 1.3822,-0.260125 2.73753,-0.548679 4.07951,-0.977725 0.16139,-0.0516 2.18422,-0.772845 2.41753,-0.83244 0.38148,-0.09745 0.77584,-0.134853 1.16376,-0.202279 3.01698,0.340063 2.70841,1.935191 1.86105,4.28657 -9.02179,5.334248 -8.79019,7.865505 -16.43267,4.969184 -2.59552,-0.92701 -5.08719,-2.136695 -7.74225,-2.86254 -3.06313,-0.363821 -6.13151,-0.289597 -9.15056,0.407728 -4.43812,1.214091 -8.43091,4.106122 5.08952,-3.772683 0.43472,-0.253325 -0.87426,0.502108 -1.28147,0.797616 -0.81775,0.59342 -1.49294,1.369274 -2.34845,1.916393 -2.60232,1.850339 -5.41543,3.355448 -7.97531,5.268949 -2.51909,2.202468 -4.93011,4.426728 -4.98006,8.021948 0.075,0.44 0.0972,0.89232 0.22488,1.32002 0.57835,1.93757 2.51318,2.77633 4.33505,2.01963 -20.124055,12.14927 -8.41996,6.51737 -7.23145,3.60571 0.60504,-1.48227 0.71351,-3.20676 0.6874,-4.78111 0.004,-3.12048 -0.0646,-6.25958 0.39845,-9.35502 0.62543,-2.789216 1.53141,-5.506638 4.05021,-7.143329 3.56057,-2.021311 7.0737,-4.128556 10.6817,-6.06393 0.91422,-0.4904 2.164,-0.166045 2.71662,0.699664 0.55376,0.867503 0.30359,1.124971 0.11119,2.067436 -1.29862,2.808718 -2.71468,5.540795 -4.48506,8.087532 -3.79492,4.288837 -1.22948,1.637977 -11.92555,7.714247 -1.75366,0.99623 -3.98175,0.70294 -5.88539,0.58923 -2.702701,-0.52663 -5.405671,-1.26471 -7.120171,-3.59462 -0.208714,-0.3594 -0.486498,-0.68676 -0.626142,-1.07821 -0.821904,-2.303934 0.931466,-4.396354 2.550004,-5.778469 1.989053,-1.987036 3.425639,-4.431112 5.469119,-6.367952 3.48557,-2.076299 6.92134,-4.238572 10.4567,-6.2289 1.73619,-0.977434 3.39468,1.09178 4.1563,2.342968 0.11434,0.224163 0.18828,0.474043 0.343,0.672488 0.97921,1.255885 3.07654,0.678879 4.36806,0.54215 1.09583,-0.219178 2.15932,-0.463812 3.20765,-0.860123 0.32906,-0.124397 1.27476,-0.588547 0.97439,-0.405419 -7.99627,4.875176 -11.98416,6.504382 -8.00613,4.838854 0.137,-0.102709 0.75795,-0.520663 0.85849,-0.74808 0.38988,-0.881957 -2.54161,-0.773803 -2.71183,-0.757582 -1.12261,0.03604 -1.493,0.0084 -2.61944,0.210757 -4.23903,0.761468 -11.81006,5.302977 3.72863,-3.436663 -0.5166,0.298151 -1.8771,1.055823 -2.37608,1.445692 -1.4746,1.15213 -2.48996,2.749642 -3.45949,4.317968 -0.90854,2.240282 -1.07552,3.588583 -0.60075,5.975419 -0.90169,-3.69106 0.0303,-0.105662 -9.41352,5.362012 -0.17937,0.10385 0.35646,-0.22485 0.48876,-0.3844 0.51464,-0.62064 0.78404,-1.40161 1.02752,-2.15273 0.14616,-0.450887 0.24842,-0.914845 0.37263,-1.37227 0.42822,-1.414647 0.78758,-2.894536 1.40444,-4.243316 0.70372,-1.538732 0.48478,-0.754729 1.29886,-2.101982 0.17829,-0.295055 0.31066,-0.615519 0.46599,-0.923279 3.50288,-1.81959 6.86815,-3.933026 10.50864,-5.458773 0.3175,-0.133064 0.55334,0.449562 0.69633,0.762717 0.56846,1.244963 -1.10742,2.99647 -1.66855,3.909344 -1.24478,2.893874 -2.3802,5.895718 -1.82583,9.100753 0,0 -9.9424,5.191366 -9.9424,5.191366 z"
       inkscape:connector-curvature="0" />
    <path
       style="fill:#00ff00;stroke-width:0.26458332"
       id="path104"
       d="m 136.02494,92.958641 c 1.95651,-0.526431 2.9472,-0.2599 4.51893,0.929272 0,0 -9.4414,6.034855 -9.4414,6.034855 v 0 c -1.4083,-0.814173 -2.42092,-0.589539 -3.94024,-0.07872 0,0 8.86271,-6.885405 8.86271,-6.885405 z"
       inkscape:connector-curvature="0" />
    <path
       style="fill:#00ff00;stroke-width:0.26458332"
       id="path106"
       d="m 126.06043,86.000036 c 2.8796,-1.128662 5.90812,-1.910951 9.01172,-1.78607 2.65842,0.58488 4.43442,2.536658 5.86687,4.72835 1.17507,2.17261 1.7783,4.528206 2.13326,6.953123 0,0 -9.89655,5.211621 -9.89655,5.211621 v 0 c -0.28244,-2.274613 -0.80175,-4.481151 -1.88472,-6.523785 -1.2546,-1.924208 -2.83791,-3.608808 -5.25069,-3.815029 -3.03705,0.09745 -6.01301,0.933039 -8.7492,2.246413 0,0 8.76931,-7.014623 8.76931,-7.014623 z"
       inkscape:connector-curvature="0" />
    <path
       style="fill:#00ff00;stroke-width:0.26458332"
       id="path108"
       d="m 139.56208,93.425607 c 0.1101,1.85216 -0.56692,4.849884 1.13453,6.224757 0.19303,0.155974 0.4442,0.221429 0.6663,0.332144 1.02435,0.191842 1.92639,-0.326697 2.85515,-0.689258 0,0 -8.83046,6.83156 -8.83046,6.83156 v 0 c -1.23351,0.29608 -2.28311,0.56794 -3.46359,-0.0847 -0.28812,-0.22175 -0.61294,-0.40263 -0.86437,-0.66525 -1.70209,-1.77784 -1.34892,-4.61235 -1.50267,-6.851394 0,0 10.00511,-5.097859 10.00511,-5.097859 z"
       inkscape:connector-curvature="0" />
    <path
       style="fill:#00ff00;stroke-width:0.26458332"
       id="path110"
       d="m 97.497354,78.243344 c -1.658337,-2.730296 -2.894841,-5.604131 -3.371832,-8.764838 -0.491635,-3.232801 -0.008,-6.240561 1.29997,-9.208077 3.288773,-5.967693 10.493408,-7.93314 16.269398,-11.013921 -16.784748,8.828907 -8.56197,5.749509 -6.18733,3.086353 0.8819,-0.989049 1.26397,-2.135298 1.64704,-3.371344 0.61787,-2.311204 0.0919,-4.684239 0.27317,-7.032882 0.24085,-1.387213 1.03541,-2.128856 2.20879,-2.789811 10.79007,-6.077974 6.74251,-4.677699 11.60246,-6.270919 1.98826,-0.400124 4.12233,-0.874474 6.16256,-0.564671 0.47154,0.0716 0.92507,0.232693 1.38761,0.349038 1.85715,0.502711 3.43841,1.55965 5.13559,2.405547 0.98523,0.491051 2.0017,0.917382 2.98985,1.402538 0.5045,0.268197 1.009,0.536395 1.5135,0.804592 0,0 -9.29318,6.087391 -9.29318,6.087391 v 0 c -0.49633,-0.258064 -0.99266,-0.516128 -1.489,-0.774192 -2.64003,-1.248543 -5.19195,-2.735162 -8.00903,-3.548221 -2.43279,-0.349097 -4.89027,-0.07861 -7.21526,0.735094 -4.07073,1.691574 -1.18768,0.544626 7.6801,-4.644604 0.2715,-0.15888 -0.53484,0.334782 -0.82107,0.46527 -0.8016,0.365424 -1.41776,0.477094 -1.81005,1.38037 -0.4208,2.394686 0.31701,4.8045 -0.24186,7.192476 -0.52939,2.266423 -1.27826,4.51553 -3.40063,5.787348 -3.57659,2.14326 -7.21534,4.181041 -10.82302,6.271559 -3.583832,1.799074 -9.645137,5.339685 5.58545,-3.531635 0.41494,-0.241694 -0.84491,0.467238 -1.21729,0.770443 -0.81741,0.665575 -1.21991,1.357013 -1.82131,2.204519 -1.49343,2.836833 -1.97929,5.417936 -1.5749,8.61601 0.3879,3.094935 1.48863,5.775288 3.24036,8.366038 0,0 -9.720086,5.590529 -9.720086,5.590529 z"
       inkscape:connector-curvature="0" />
    <path
       style="fill:#00ff00;stroke-width:0.26458332"
       id="path112"
       d="m 135.2245,44.554835 c 0.26122,-0.316537 0.52244,-0.633076 0.78365,-0.949613 0,0 10.26903,-4.404738 10.26903,-4.404738 v 0 c -0.23807,0.326244 -0.47614,0.652486 -0.71421,0.97873 0,0 -10.33847,4.375621 -10.33847,4.375621 z"
       inkscape:connector-curvature="0" />
    <path
       style="fill:#00ff00;stroke-width:0.26458332"
       id="path114"
       d="m 139.22958,33.933982 c 3.13738,1.285541 5.0679,4.236174 6.83367,6.979398 1.86141,2.76846 2.95075,5.851877 3.61902,9.093581 0.40072,2.805271 0.59462,5.646846 0.20537,8.459507 -0.49126,1.695529 -1.15817,3.694771 -2.78535,4.663334 -10.5274,6.266331 -6.66684,5.934856 -12.03407,6.109391 -2.6335,-0.231082 -4.96513,-1.434741 -7.42932,-2.248265 -2.66822,-0.791475 -5.44768,-0.934062 -8.2101,-1.032936 -2.3211,0.126195 -4.7384,-0.355315 -7.04346,0.07016 -0.4394,0.08111 -0.85568,0.257755 -1.28352,0.386631 -5.29362,3.026209 6.39424,-3.656304 6.83545,-3.890558 0.48421,-0.257077 -0.8946,0.638072 -1.30168,1.005261 -1.21463,1.095578 -2.09058,2.451901 -2.99835,3.794014 -2.11692,3.931647 -12.1493,11.835637 -12.14234,5.530262 5.3e-4,-0.435176 0.11359,-0.862912 0.17038,-1.294365 0.96311,-3.287787 2.18381,-6.508891 3.36118,-9.729253 1.11724,-3.229407 3.06907,-5.9074 5.49634,-8.260564 4.779,-3.938164 10.28818,-7.101996 16.37132,-8.188233 1.68403,-0.184168 3.97606,-0.738356 5.38403,0.577538 0.28909,0.270182 0.47517,0.632844 0.71276,0.949264 0.95296,1.83768 1.36014,4.014473 0.51755,5.983542 -0.19561,0.45712 -0.4858,0.867693 -0.72869,1.301538 -0.94528,1.265309 -2.17946,2.194475 -3.54127,2.968895 -5.52103,3.139646 -8.11207,6.212467 -13.46583,6.465242 -2.49192,-0.776076 -2.42884,-2.273417 -0.47086,-3.659325 0.6451,-0.49498 3.60916,-2.150499 3.52031,-3.05806 -0.009,-0.09065 -0.12089,-0.136276 -0.18134,-0.204414 -0.75634,-0.08698 -1.39842,0.1167 -2.06617,0.472916 -0.30675,0.163637 -1.18806,0.72213 -0.88406,0.55344 8.76359,-4.86301 11.26134,-6.972636 7.67119,-4.070401 -0.96549,0.782786 -1.60095,1.751772 -2.17056,2.83174 0,0 -10.15816,4.663972 -10.15816,4.663972 v 0 c 0.4494,-1.266359 1.00517,-2.340435 1.97665,-3.306185 3.91173,-3.486664 1.29016,-1.256803 11.43053,-7.103063 1.27942,-0.737624 2.7723,-0.650846 3.90739,0.257461 0.16805,0.267742 0.39812,0.505428 0.50415,0.803233 0.68131,1.913678 -1.8783,3.180609 -3.10617,4.077337 -0.25762,0.158375 -0.50323,0.338196 -0.77286,0.47512 -0.65561,0.332926 -2.29822,0.414878 -0.22735,0.596342 4.07359,-0.73262 8.1012,-4.160263 -5.89805,4.198734 -0.43445,0.259411 0.90073,-0.462518 1.33704,-0.718786 1.3131,-0.77126 1.22942,-0.782489 2.39294,-1.754251 1.61566,-2.222772 1.99332,-3.431455 0.78844,-6.027957 -0.15635,-0.180445 -0.27369,-0.404092 -0.46906,-0.54134 -1.2205,-0.857382 -3.579,-0.131053 -4.91082,0.02222 -1.14391,0.27136 -2.27357,0.563502 -3.37113,0.993026 -0.3617,0.14155 -1.39921,0.668933 -1.06789,0.466231 13.98208,-8.55421 10.43001,-6.270112 7.29182,-4.231889 -2.54922,2.100326 -4.57374,4.683204 -5.7647,7.792185 -0.63988,1.672781 -1.13166,3.382487 -1.76102,5.057889 -0.20156,0.536583 -1.02863,2.534224 -1.21106,3.09013 -0.14901,0.454078 -0.24487,0.923909 -0.36731,1.385863 -0.0996,0.310846 -0.24464,0.610656 -0.29889,0.932538 -0.0342,0.202763 0.12825,0.430945 0.038,0.615696 -0.0469,0.0959 -0.13668,-0.274794 -0.22992,-0.222854 -3.13685,1.747383 -6.13583,3.733594 -9.25756,5.50785 -0.6589,0.374489 2.95925,-2.324216 1.46413,-1.7395 0.19597,-0.301035 1.58326,-2.441692 1.79291,-2.725436 3.52236,-4.767107 9.29458,-7.307808 14.73081,-9.402691 2.81025,-0.468617 5.66284,-0.279906 8.50102,-0.209434 2.83925,0.14636 5.68688,0.378452 8.40205,1.289526 2.31837,0.826302 4.60955,1.929371 7.13582,1.811015 4.28489,-1.160121 1.32441,-0.46614 -7.28819,4.686866 -0.37309,0.223227 0.7934,-0.372687 1.13713,-0.638913 0.85269,-0.660426 1.0659,-1.156166 1.51823,-2.103559 0.17488,-0.366284 0.31978,-0.746146 0.47967,-1.119217 0.51894,-2.684814 0.33214,-5.412226 -0.0125,-8.114479 -0.56289,-3.130833 -1.58201,-6.080234 -3.35934,-8.74925 -1.63952,-2.511015 -3.41687,-5.335452 -6.48273,-6.175211 0,0 9.22438,-6.398495 9.22438,-6.398495 z"
       inkscape:connector-curvature="0" />
    <path
       style="fill:#00ff00;stroke-width:0.26458332"
       id="path116"
       d="m 128.34553,63.835329 c 0.91289,3.167888 2.23826,4.527085 5.08879,6.027735 1.96458,1.048401 0.99615,0.456721 2.89632,1.789666 0,0 -9.35761,5.981075 -9.35761,5.981075 v 0 c -1.8608,-1.217035 -0.90615,-0.653576 -2.86336,-1.691341 -3.0163,-1.746237 -4.49461,-3.474635 -5.65302,-6.793005 0,0 9.88888,-5.31413 9.88888,-5.31413 z"
       inkscape:connector-curvature="0" />
    <path
       style="fill:#00ff00;stroke-width:0.26458332"
       id="path118"
       d="m 120.11103,70.721436 c -1.82893,-2.944058 -2.87077,-6.187326 -3.55172,-9.559406 -0.62194,-3.067376 -1.60221,-4.749985 -4.52575,-5.946847 -1.25371,-0.380214 -2.44542,-0.506023 -3.70201,-0.08623 -0.378,0.126283 -1.44485,0.668423 -1.09985,0.468879 9.75358,-5.641395 11.11045,-6.783239 7.77297,-4.151225 -1.75148,2.061183 -2.0512,4.788834 -2.61434,7.331739 -0.0852,1.602954 -2.40838,5.039619 -1.8391,6.460151 -0.005,-0.200334 -0.0925,-0.4167 -0.0139,-0.601009 0.0681,-0.159525 0.27206,-0.215196 0.4081,-0.322794 -2.98333,1.683456 -5.9547,3.38827 -8.94998,5.050369 -0.29806,0.165399 0.57916,-0.360585 0.85626,-0.559109 0.3382,-0.242303 0.66876,-0.495875 0.98825,-0.762363 0.32095,-0.267703 0.62112,-0.559369 0.93169,-0.839052 1.95974,-2.164474 3.65958,-4.553217 4.84133,-7.226347 0.64441,-1.691632 0.82546,-3.50791 1.45436,-5.206932 0.44916,-1.213429 0.69844,-1.58678 1.30438,-2.71835 1.38307,-2.732545 3.40466,-5.030488 4.79053,-7.755943 0.26659,-0.671867 0.58792,-1.262911 0.63207,-1.99 0.008,-0.139125 0.0376,-0.3332 -0.0782,-0.410765 -0.0844,-0.05652 -0.14207,0.145587 -0.21942,0.211412 -0.14782,0.125791 -0.62642,0.454655 -0.4554,0.362869 3.03853,-1.630749 6.04384,-3.322649 9.06576,-4.983973 -2.18364,1.323893 -3.05062,3.446182 -3.44428,5.862421 0.0742,2.92763 0.88883,3.760962 3.62356,4.396025 2.99041,0.488511 5.03053,0.581462 7.84456,-0.670451 -2.85655,1.59693 -5.71309,3.193859 -8.56963,4.790789 0.27415,-0.260292 1.3967,-1.007181 1.11063,-1.62874 -0.1549,-0.336556 -0.67662,-0.306735 -1.03043,-0.416629 -1.79504,-0.509368 -3.67266,-0.39301 -5.51032,-0.543939 5.30163,-4.368247 8.58315,-7.315745 14.61048,-8.428645 0.39855,-0.0064 0.80225,-0.08335 1.19564,-0.01913 1.66319,0.271479 3.45913,1.470044 4.46107,2.800369 0.2611,0.346673 0.43348,0.752012 0.65021,1.128016 0.99369,2.701936 0.23287,5.591199 -0.28482,8.323591 -0.55722,2.291664 -1.68685,4.427622 -3.80169,5.646107 -3.56993,2.056842 -7.19704,4.012814 -10.79555,6.019221 -0.40971,0.01439 -0.82869,0.131003 -1.22914,0.0432 -1.03668,-0.227298 -1.88153,-1.195885 -1.76803,-2.277835 0.0297,-0.282969 0.0881,-0.633198 0.32643,-0.788675 3.34499,-2.18258 6.86019,-4.092443 10.29029,-6.138664 0.32719,-0.04161 0.652,-0.138023 0.98156,-0.124844 1.2955,0.05181 2.54175,0.692124 3.78205,0.994635 1.20058,0.292825 1.29841,0.246536 2.45331,0.300202 0.23361,-0.01418 0.90325,-0.160079 0.70084,-0.04256 -3.11231,1.807107 -6.39248,3.316171 -9.49119,5.146506 -0.11361,0.0671 0.24445,0.216477 0.20093,0.341032 -0.0625,0.178819 -1.88575,-0.561292 -2.10554,-0.632322 -3.09628,-0.781767 -4.65414,-0.239475 -7.03903,-2.782165 -1.55147,-2.554896 -0.94236,-5.361541 -0.39121,-8.117682 0.38531,-2.101696 1.49957,-4.593391 0.10504,-6.512229 -0.20135,-0.118472 -0.38394,-0.277095 -0.60404,-0.35542 -1.12207,-0.399312 -3.51976,-0.06974 -4.73071,-0.0034 -0.36165,0.101107 -0.72331,0.202215 -1.08496,0.303323 0,0 8.91005,-6.75522 8.91005,-6.75522 v 0 c 0.39935,-0.05619 0.7987,-0.112387 1.19805,-0.168582 2.11529,-0.08267 4.36084,-0.325749 5.9881,1.296043 1.65813,2.545699 0.86637,4.57957 0.25103,7.349149 -0.3295,1.421011 -0.90832,3.701473 -0.77319,5.1553 0.0805,0.865645 0.32899,1.232133 0.6846,1.976721 2.03585,2.021943 4.20906,1.432054 6.75423,2.341337 0.90272,0.331388 2.12302,0.635244 2.73598,1.464403 2.83615,3.83649 -6.35387,7.126309 -10.42103,6.482003 -1.33194,-0.194932 -1.13273,-0.135191 -2.54402,-0.48432 -1.45716,-0.360473 -2.87504,-0.931934 -4.28758,-0.114834 2.93309,-1.763731 5.88369,-3.498678 8.79928,-5.291193 0.17291,-0.106304 -0.37559,0.154048 -0.56445,0.228399 -0.11308,0.04452 -0.31873,0.0088 -0.34131,0.128175 -0.11896,0.629179 2.03294,0.372491 1.9698,0.12257 -19.8118,11.812911 -6.90515,4.795213 -5.30723,2.591287 0.57734,-0.796295 0.78813,-1.564095 1.12739,-2.475613 0.31818,-1.569813 1.10127,-4.978149 0.92203,-6.494931 -0.0449,-0.380114 -0.20279,-0.738166 -0.30419,-1.10725 -1.18624,-2.118383 -3.09409,-3.173751 -5.53161,-2.733473 -5.39446,1.27109 -11.38391,5.781386 3.52113,-4.88859 1.88865,0.249954 3.85071,0.146537 5.64105,0.908185 0.32005,0.184734 0.67778,0.315817 0.96015,0.554207 1.0043,0.847883 1.26646,2.827747 0.0152,3.614687 -3.46382,2.178526 -7.08197,4.101446 -10.62295,6.152171 -2.72226,0.825325 -5.51378,0.80246 -8.27629,0.10574 -3.1074,-1.054282 -4.13525,-2.458024 -4.38852,-5.769594 0.21472,-2.571067 0.88137,-5.0229 2.96026,-6.727449 3.46751,-1.945513 6.85206,-4.046897 10.40253,-5.836541 0.25802,-0.130056 0.59443,0.03146 0.85118,0.164015 1.52898,0.789381 0.88948,2.621984 0.38721,3.815225 -0.40051,0.880544 -0.97921,2.245675 -1.51771,3.056671 -0.26771,0.403169 -0.63767,0.729305 -0.92876,1.115935 -0.85963,1.141818 -1.63499,2.371918 -2.28715,3.642053 -1.00223,1.656768 -1.7974,3.268102 -2.2138,5.174589 -0.0979,0.448434 -0.12979,0.909817 -0.23139,1.357437 -0.0964,0.424569 -0.24109,0.8367 -0.36163,1.255051 -1.06613,2.842702 -2.80705,5.248521 -4.64254,7.647969 -3.77236,3.879408 -7.72014,5.421148 -13.02945,8.296338 -0.18914,0.102426 -0.44157,0.132133 -0.64281,0.05621 -0.2927,-0.110432 -0.49306,-0.385181 -0.7396,-0.577771 -0.918372,-2.457953 1.20999,-4.780291 1.66257,-7.123528 0.68737,-2.661385 0.86681,-5.46776 2.31114,-7.896198 3.40039,-3.88179 1.04344,-1.383345 11.39692,-6.961219 0.56543,-0.304621 1.88872,-0.390398 2.50085,-0.350901 1.18973,0.07676 1.65931,0.300691 2.78922,0.656788 3.02895,1.561481 4.35044,3.526676 5.02018,6.877404 0.59516,3.239728 1.52302,6.381557 3.41401,9.128258 0,0 -9.66903,5.665758 -9.66903,5.665758 z"
       inkscape:connector-curvature="0" />
    <path
       style="fill:#ececec;stroke-width:0.26458332"
       id="path122"
       d="m 61.473905,25.746805 c 1.98094,0.70012 4.10138,1.5441 5.575546,3.115109 0.827378,0.881729 1.114496,1.568751 1.674966,2.608159 1.028684,2.757794 1.443336,5.728454 1.739058,8.647779 0.07563,2.91719 0.483357,5.776783 1.487641,8.52092 0.60271,1.194736 1.988704,4.506139 3.80048,4.126417 0.266534,-0.05586 0.486294,-0.245279 0.729441,-0.367919 3.375041,-2.931985 -0.845474,0.814909 -8.215543,4.355606 -0.325517,0.156382 0.39909,-0.605063 0.551969,-0.932239 0.536466,-1.14809 0.684747,-2.410534 0.858176,-3.647786 0.108254,-3.079351 0.370271,-6.107258 0.970396,-9.132827 0.543616,-3.60503 1.454394,-6.681594 3.049431,-9.955995 1.533459,-2.868692 2.31262,-5.997461 2.742579,-9.196734 0.09126,-2.394143 0.752112,-5.078445 -0.372084,-7.311986 -1.701474,-1.331464 -3.91251,-1.088769 -5.797973,-0.319744 -2.416053,0.863725 -4.594987,2.209624 -6.944291,3.220193 -0.396105,0.124672 -0.794711,0.24166 -1.188313,0.374016 -1.056923,0.355408 -1.25277,0.423022 -2.24351,0.968723 -0.371761,0.204766 -1.46262,0.861726 -1.092933,0.653235 8.671004,-4.890167 10.892425,-6.828448 7.228054,-3.813523 -2.067007,1.934976 -3.039473,4.393439 -3.317076,7.156994 0.08865,1.589583 -0.257072,3.483987 0.532995,4.961317 0.364347,0.681289 0.84944,0.924433 1.449591,1.357024 2.255758,1.032148 4.809617,1.128009 7.248237,0.95934 0.381423,-0.1279 0.778645,-0.21589 1.14427,-0.383699 0.326353,-0.149783 1.232702,-0.736685 0.918422,-0.562996 -2.944622,1.627357 -5.822405,3.378001 -8.8103,4.924475 -0.266078,0.137716 0.430811,-0.422865 0.595911,-0.672873 0.48166,-0.729368 0.519834,-1.188669 0.740669,-2.037132 0.361238,-2.587734 0.629438,-5.27371 0.0312,-7.838528 -0.144623,-0.308245 -0.236783,-0.647089 -0.433874,-0.924733 -0.343037,-0.483242 -0.677772,-0.663994 -1.25354,-0.562151 -0.222697,0.03939 -0.822587,0.37427 -0.624525,0.265102 9.49343,-5.232657 11.395681,-7.450987 8.479464,-4.269699 -1.075981,2.043573 -1.130609,4.40313 -1.223835,6.661104 -0.158417,2.664613 0.148865,5.315116 0.470982,7.955221 0.28189,1.220058 0.80197,4.262271 2.431918,4.555858 0.510106,0.09188 1.388578,-0.504902 1.75247,-0.708842 -18.053905,9.672547 -8.901732,6.688185 -7.598018,3.241167 0.459533,-1.215009 0.41198,-2.453535 0.39081,-3.725585 -0.198768,-2.827637 -0.400066,-5.654331 -0.490124,-8.487804 -0.126974,-2.790664 0.130344,-5.585261 -0.563322,-8.311072 -0.364723,-0.762971 -0.846167,-1.454063 -1.799876,-1.086515 -0.255601,0.09851 -0.926319,0.584042 -0.686353,0.451933 8.670176,-4.773198 11.69665,-6.917932 7.833048,-4.24156 0,0 -10.376649,4.139481 -10.376649,4.139481 v 0 c 3.85518,-3.265131 2.090335,-1.870292 11.427778,-6.752298 0.515064,-0.269297 1.578234,0.07007 1.99513,0.323464 0.824905,0.501382 0.958985,1.024703 1.414079,1.8479 0.329729,1.228222 0.486621,1.596545 0.589441,2.89396 0.14831,1.871443 -0.08238,3.772185 0.07309,5.645398 0.09935,2.830918 0.258347,5.657917 0.505571,8.480124 0.406278,8.307377 -2.467515,7.350085 -11.560217,12.442322 -0.381117,0.05381 -0.759577,0.190794 -1.143349,0.161422 -2.75031,-0.210486 -3.511712,-3.537897 -4.041953,-5.68421 -0.398116,-2.678967 -0.711525,-5.388176 -0.598365,-8.100835 0.06407,-2.411209 0.146314,-4.869516 0.94884,-7.169082 1.925839,-4.627218 0.421664,-1.598751 10.797395,-6.951698 0.41234,-0.212731 1.58909,0.433786 1.816391,0.615217 0.797885,0.636864 0.872863,1.086814 1.288716,1.988778 0.700699,2.704401 0.48867,5.519971 0.204777,8.279581 -0.127193,0.782455 -0.226933,1.678499 -0.522001,2.427246 -1.890864,4.798136 -8.264488,6.821262 -13.124826,7.760279 -2.65993,0.01035 -5.403646,-0.142732 -7.717684,-1.596202 -2.682343,-2.307392 -2.41768,-3.955836 -2.485718,-7.279129 0.139721,-2.957899 0.948772,-5.693922 2.986611,-7.93083 4.41923,-4.519223 10.529393,-7.076519 16.351501,-9.343087 2.316922,-1.097232 4.568696,-2.364015 7.036774,-3.1073281 2.453656,-0.5130877 4.915321,-0.3749318 6.694818,1.6067971 0.166323,0.337088 0.37973,0.654789 0.49897,1.011264 0.735891,2.199993 0.121261,4.660813 0.115784,6.907657 -0.355039,3.305971 -1.107397,6.568765 -2.614774,9.555917 -0.203417,0.401085 -1.341837,2.622127 -1.523873,3.072114 -0.858149,2.121326 -1.182698,4.394282 -1.632418,6.621047 -0.657227,2.985119 -0.951262,5.97154 -0.984641,9.027263 -0.653913,7.05667 -2.970782,9.208093 -12.138475,11.928512 -0.341723,-0.01484 -0.6921,0.03333 -1.025171,-0.04451 -2.255059,-0.52705 -3.331762,-3.26313 -4.281246,-5.065893 -1.079926,-2.813632 -1.597912,-5.756584 -1.636419,-8.771109 -0.264401,-2.784385 -0.625486,-5.610072 -1.533625,-8.263377 -1.635567,-3.122432 -3.50206,-3.991755 -6.834849,-4.941154 0,0 9.258358,-6.322748 9.258358,-6.322748 z"
       inkscape:connector-curvature="0" />
    <path
       style="fill:#ececec;stroke-width:0.26458332"
       id="path124"
       d="m 61.928835,26.364252 c -0.661774,-1.032525 -1.25975,-2.163869 -1.454108,-3.392955 -0.03993,-0.252486 -0.226663,-0.62518 -0.01381,-0.766747 9.692835,-6.446884 6.96428,-8.169814 10.747933,-5.241186 1.052131,1.549917 0.549682,0.749573 1.504021,2.403117 0,0 -9.650124,5.586823 -9.650124,5.586823 v 0 c -0.852514,-1.395145 -0.415242,-0.796938 -1.261472,-1.83036 -4.05202,-0.395465 -0.891678,0.005 8.795734,-5.823833 0.127185,-0.07653 -0.238377,0.220546 -0.249955,0.368525 -0.03862,0.493579 0.365776,1.563084 0.559078,1.936575 0.177745,0.343436 0.42631,0.645312 0.639464,0.967969 0,0 -9.616752,5.792072 -9.616752,5.792072 z"
       inkscape:connector-curvature="0" />
    <path
       style="fill:#ececec;stroke-width:0.26458332"
       id="path126"
       d="m 18.494798,38.631823 c 0.08025,-0.477907 0.160493,-0.955813 0.240739,-1.433722 0,0 10.009315,-4.908418 10.009315,-4.908418 v 0 c -0.06325,0.451869 -0.126503,0.903738 -0.189754,1.355606 0,0 -10.0603,4.986534 -10.0603,4.986534 z"
       inkscape:connector-curvature="0" />
    <path
       style="fill:#ececec;stroke-width:0.26458332"
       id="path128"
       d="m 30.791438,38.473932 c 1.323943,-2.537216 2.719763,-5.036626 4.209068,-7.48071 0,0 10.153939,-4.486312 10.153939,-4.486312 v 0 c -1.482088,2.381086 -2.868467,4.807874 -4.16296,7.296269 0,0 -10.200047,4.670753 -10.200047,4.670753 z"
       inkscape:connector-curvature="0" />
    <path
       style="fill:#ececec;stroke-width:0.26458332"
       id="path130"
       d="m 21.831648,34.727454 c 0.945099,-1.07722 1.645898,-2.327913 2.367415,-3.556622 0,0 10.163641,-4.532916 10.163641,-4.532916 v 0 c -0.693777,1.259184 -1.378886,2.526107 -2.192586,3.713917 0,0 -10.33847,4.375621 -10.33847,4.375621 z"
       inkscape:connector-curvature="0" />
    <path
       style="fill:#ececec;stroke-width:0.26458332"
       id="path132"
       d="m 41.804878,32.694909 c -0.13089,-1.952231 -0.01535,-0.954736 -0.363207,-2.990522 0,0 9.808385,-5.233594 9.808385,-5.233594 v 0 c 0.442669,2.098654 0.285035,1.091681 0.502308,3.016171 0,0 -9.947486,5.207945 -9.947486,5.207945 z"
       inkscape:connector-curvature="0" />
    <path
       style="fill:#ececec;stroke-width:0.26458332"
       id="path134"
       d="m 83.159948,45.211727 c 2.571393,-2.667873 5.632622,-4.812948 8.501724,-7.148412 0,0 10.285208,-4.134996 10.285208,-4.134996 v 0 c -0.98866,0.797463 -1.950301,1.628257 -2.945071,2.418091 -1.470393,1.167477 -3.064907,2.229593 -4.484018,3.45853 -0.370493,0.320844 -0.687226,0.698958 -1.030841,1.048438 0,0 -10.327002,4.358349 -10.327002,4.358349 z"
       inkscape:connector-curvature="0" />
    <path
       style="fill:#ececec;stroke-width:0.26458332"
       id="path136"
       d="m 72.653072,7.5360913 c 0.590902,-0.4053298 -3.611854,2.0520464 -2.709503,1.5379607 2.608686,-1.4862117 10.413196,-5.9824527 7.815482,-4.477145 -4.943499,2.8646297 -9.337397,5.869227 -14.525789,7.912102 -3.042145,1.190159 -5.862666,0.768807 -8.880017,-0.184107 -2.795484,-0.666837 -4.961133,-2.55713 -7.262966,-4.1512017 -0.385477,-0.2856238 -0.770953,-0.5712476 -1.15643,-0.8568714 0,0 9.413004,-5.9680464 9.413004,-5.9680464 v 0 c 0.383366,0.2779972 0.766734,0.5559943 1.150099,0.8339915 2.204749,1.5695341 4.356701,3.2430628 7.062973,3.8445255 2.858442,0.7619177 5.631526,0.8676722 8.391652,-0.3952724 0.523337,-0.2314702 1.054377,-0.446252 1.570011,-0.6944108 0.554056,-0.2666508 2.164969,-1.1653039 1.637514,-0.849276 -18.058739,10.8200357 -0.01606,-0.4761211 6.286367,-3.52007992 0,0 -8.792397,6.96783092 -8.792397,6.96783092 z"
       inkscape:connector-curvature="0" />
    <path
       style="fill:#ececec;stroke-width:0.26458332"
       id="path138"
       d="M 79.365069,5.4034597 C 79.747638,5.2481646 80.131681,5.0964525 80.512776,4.9375745 80.986952,4.7398916 81.47523,4.5712697 81.930792,4.3338144 82.400298,4.0890912 83.74355,3.2398456 83.279799,3.4953024 80.498531,5.0273566 77.797394,6.7064098 74.976642,8.1644899 74.555574,8.3821457 75.721699,7.573746 76.05042,7.2322557 76.380093,6.8897772 76.646102,6.491266 76.943941,6.1207713 77.620425,4.935751 79.037385,2.4595332 77.658459,1.1921433 77.506297,1.0522907 77.281983,1.0215176 77.093748,0.9362048 76.798915,0.89704435 76.506506,0.80875642 76.209254,0.81872348 74.553836,0.87423044 71.841232,1.7256607 70.371392,2.4583536 66.843735,4.0543617 60.829517,7.4999738 76.342223,-1.1489439 76.746165,-1.3741571 75.567941,-0.6429263 75.180186,-0.39086049 73.451544,0.73287095 74.584771,-0.01750716 72.877039,1.1259297 68.603354,3.9402816 69.451169,3.4151519 61.062295,8.0139489 60.008912,8.5914155 58.239154,8.903559 57.049701,8.8403723 56.632345,8.8182002 56.229143,8.6810108 55.818865,8.6013299 54.069297,7.9452043 52.743607,6.1468923 53.370231,4.2005133 c 0.12479,-0.387618 0.396763,-0.7112376 0.595148,-1.0668566 7.608403,-4.5445705 9.971757,-8.4902761 17.219562,-5.1365615 1.25802,0.7843913 2.628839,1.33991758 3.997605,1.89233673 0,0 -9.26307,6.18582177 -9.26307,6.18582177 v 0 C 64.561478,5.4901702 63.213365,4.8856275 61.907202,4.1899273 60.684523,3.7337071 59.49715,3.3731716 58.171847,3.38724 c -3.804751,0.040389 -10.337184,5.6841058 6.110406,-4.5981487 -0.275362,0.1773313 -0.615595,0.28106882 -0.82609,0.53199385 -0.181631,0.21651825 -0.243512,0.51816257 -0.288864,0.79711317 -0.192611,1.18473768 0.762635,1.80912388 1.776841,2.01805828 1.28791,0.042386 2.396146,-0.1300633 3.614251,-0.5897253 0.409863,-0.1546654 1.573797,-0.7649224 1.199009,-0.5381114 -2.391714,1.4473963 -12.105428,7.1071705 -7.256208,4.2053208 2.764538,-2.0267133 -0.5397,0.3422581 2.300671,-1.5279346 4.585978,-3.01955707 9.260446,-5.9921511 14.325923,-8.1457894 2.343509,-0.8460383 5.023363,-1.6633671 7.425454,-0.6490422 0.272084,0.2273776 0.588251,0.4105698 0.81625,0.6821326 1.486884,1.7709843 0.70004,4.29417682 -0.210838,6.1057329 -2.958251,4.8379323 -6.356017,5.1668997 -12.529757,8.807197 -1.308491,0.771543 -2.74375,1.300411 -4.199649,1.713089 0,0 8.935823,-6.7956663 8.935823,-6.7956663 z"
       inkscape:connector-curvature="0" />
    <path
       style="fill:#999999;stroke-width:0.26458332"
       id="path140"
       d="m 86.985151,145.59648 c -1.474361,-2.69576 -4.255817,-3.90674 -6.798741,-5.37469 -2.218965,-1.14897 -4.811186,-2.10786 -7.365899,-1.74062 -0.46985,0.0675 -0.920589,0.23195 -1.380885,0.34793 -3.325759,1.9525 -10.607114,4.71104 4.857242,-2.85007 0.556292,-0.27199 -0.955892,0.79366 -1.373044,1.25129 -1.040779,1.14177 -1.153885,1.57545 -1.823821,2.90008 -0.415615,1.29489 -0.8773,3.2378 0.399368,4.26935 0.474813,0.38365 1.325009,0.58815 1.872556,0.76148 1.650659,0.24776 3.201797,0.0625 4.70467,-0.68528 0.407898,-0.20294 1.573266,-0.91958 1.176438,-0.69576 -2.791412,1.5744 -5.573606,3.1651 -8.36041,4.74765 0.20328,-0.10262 2.469029,-1.9417 1.696792,-2.40173 -0.201703,-0.12016 -1.147366,-0.17015 -1.237435,-0.17834 -0.761148,-0.0351 -1.038887,-0.0619 -1.780538,-0.0451 -0.192005,0.004 -0.385363,0.004 -0.575198,0.0334 -0.06477,0.01 -0.232088,0.12003 -0.178594,0.0822 10.01491,-7.08631 5.828096,-6.55027 10.851075,-6.9804 2.190676,-0.29545 4.453327,0.009 6.634674,-0.34131 -11.148912,7.76981 -6.861845,6.59269 -15.506232,6.60891 -0.72223,-0.24305 -1.292863,-0.28624 -1.773769,-0.91287 -0.282493,-0.36809 -0.594421,-1.35384 -0.01508,-1.71083 3.422526,-2.10897 7.078488,-3.81323 10.617732,-5.71984 0,0 -8.87313,6.84664 -8.87313,6.84664 v 0 c 2.917976,-1.72207 5.972577,-3.23123 8.75393,-5.16622 0.251698,-0.17511 -0.573603,-0.21688 -0.860404,-0.32532 -0.03904,0.0172 -0.146338,0.0204 -0.117123,0.0515 0.292984,0.31159 1.002136,0.32219 1.299768,0.37354 1.664219,-1e-5 3.328387,-0.01 4.992587,-0.0122 4.492863,-0.007 0.729589,0.11169 -7.618425,6.66195 -2.167472,-0.12181 -4.357111,0.17072 -6.513333,0.33501 -4.492921,0.69611 -1.649632,0.43301 7.209192,-6.45497 0.03395,-0.0264 2.558362,0.24616 2.676443,0.29334 3.128608,1.08436 2.69789,2.80122 0.705755,4.91759 -3.576574,2.09041 -7.128944,4.2228 -10.729725,6.27125 -1.990486,1.13236 -4.289477,1.2321 -6.458235,0.6439 -3.308842,-1.45846 -3.832807,-3.14761 -3.099589,-6.65299 0.632638,-1.52594 0.678966,-1.89192 1.696757,-3.26163 2.991932,-4.02644 7.964252,-5.47235 12.318892,-7.98634 0.535514,-0.30916 1.095359,-0.5779 1.666576,-0.81468 0.538593,-0.22325 1.104087,-0.37508 1.65613,-0.56262 3.456906,-0.41263 6.140683,0.34628 9.167209,2.05484 2.744531,1.5884 5.594567,3.01144 7.24449,5.86549 0,0 -9.758677,5.55644 -9.758677,5.55644 z"
       inkscape:connector-curvature="0" />
    <ellipse
       style="fill:#999999;stroke-width:0.26458332"
       id="path142"
       cx="20.032738"
       cy="148.83334"
       rx="2.6458333"
       ry="2.2678571" />
    <circle
       style="fill:#999999;stroke-width:0.26458332"
       id="path144"
       cx="44.601189"
       cy="148.83334"
       r="4.5357141" />
    <ellipse
       style="fill:#999999;stroke-width:0.26458332"
       id="path146"
       cx="31.577974"
       cy="139.54504"
       rx="8.487504"
       ry="7.7763839" />
    <ellipse
       style="fill:#999999;stroke-width:0.26458332"
       id="path148"
       cx="35.529762"
       cy="159.79463"
       rx="3.0238097"
       ry="2.6458333" />
    <path
       id="path150"
       transform="scale(0.26458333)"
       style="fill:#ffcc00;stroke-width:0.99999994"
       d="M 780,645.37695 A 297.14286,295.71429 0 0 0 482.85742,941.0918 297.14286,295.71429 0 0 0 547.65039,1125.375 c 7.79556,0 15.59109,0.01 23.38672,-0 10.25322,-0.011 20.50666,0.027 30.75977,0.051 11.7875,-0.095 23.60174,-0.6236 35.36718,0.3731 9.00926,1.07 15.47597,-1.9981 24.28711,-3.2754 1.70926,-0.248 3.45451,0 5.18164,0 10.68242,-5e-4 21.36446,-0 32.04688,0 12.44356,0 24.88651,-0.016 37.33008,-0.02 10.61862,0.034 21.24559,0.2594 31.85937,-0.1367 9.84216,-0.2258 19.59,0.4824 29.38086,1.1543 0.0285,-1.0006 0.0504,-1.8991 0.0859,-3.0664 0.0514,-1.6916 0.1148,-3.3828 0.17187,-5.0742 0.12926,-12.2289 -4.50807,-24.7291 1.16602,-36.4024 0.949,-1.8861 1.48495,-4.0454 2.84765,-5.6582 0.3258,-0.3855 1.21427,1.1871 1.34375,0.6992 0.49251,-1.8555 0,-3.8399 0,-5.7597 v -26.0254 -38.3008 c 0,-10.58228 8e-5,-21.16579 0,-31.74805 -1.8e-4,-12.42864 -9.4e-4,-24.85652 0,-37.28516 0,-11.30857 -0.007,-22.61725 0,-33.92578 0.0151,-10.2788 0.0224,-20.55729 -0.0449,-30.83594 7.6e-4,-10.62954 0.38181,-21.25787 0.084,-31.88476 -0.77416,-10.33134 -2.7268,-22.61542 2.8164,-31.92383 -0.001,-11.29361 0.004,-22.58725 0.008,-33.88086 -0.0189,-10.32484 -0.077,-20.65019 0.0488,-30.97461 0.0745,-11.40302 -0.42769,-22.7816 -0.33203,-34.18164 0.27099,-2.92706 0.81483,-11.75889 1.79297,-14.4707 0.11679,-0.32391 1.03235,0.23846 1.02539,-0.10547 -0.0692,-3.44444 -5.8402,-5.74101 -4.67773,-9.21485 -3.09283,-10.69121 -4.13873,-10.81682 -3.75391,-15.24414 -3.31374,-3.18267 -5.98445,-7.03887 -7.51953,-11.88281 -1.05587,-3.33175 -0.54436,-6.84562 0.14062,-10.37891 A 297.14286,295.71429 0 0 0 780,645.37695 Z m 55.53906,40.02149 c 0.16164,4.33666 0.63269,9.168 4.76367,3.27344 -1.68099,-1.42054 -3.24001,-2.45644 -4.76367,-3.27344 z m 135.88672,50.08594 v 0.26171 c 0.0282,-0.0582 0.0594,-0.11564 0.0879,-0.17382 -0.0293,-0.0292 -0.0586,-0.0586 -0.0879,-0.0879 z M 1068.8262,873.125 c -0.2258,0.79431 -0.4785,1.58054 -0.7891,2.34766 -0.5612,1.3864 -6.3502,9.23871 -8.3418,10.28515 -0.5555,0.29178 -0.093,-2.35908 -0.4336,-1.83203 -2.1604,3.34341 -0.1071,8.55402 -3.3125,11.47461 -0.2951,0.54746 -0.5623,1.11362 -0.8242,1.68359 1.8264,-1.56889 3.6839,-3.10836 5.2891,-4.89648 0.7029,-0.78308 0.7141,-2.00205 1.3047,-2.87305 1.7261,-2.54574 3.3583,-4.66215 4.9394,-6.73633 0.755,-2.49155 1.7061,-4.92106 2.6406,-7.35546 a 297.14286,295.71429 0 0 0 -0.4726,-2.09766 z m -124.418,4.75977 c 0.0717,0.48771 0.13149,0.95056 0.21289,1.44726 0.0142,-0.0557 0.0308,-0.1103 0.0449,-0.16601 -0.0917,-0.42716 -0.17356,-0.85373 -0.25782,-1.28125 z m 107.8574,21.92382 c -0.015,-0.0206 -0.035,-0.002 -0.061,0.0664 -0.023,0.0632 -0.04,0.12794 -0.062,0.19141 0.048,-0.0562 0.095,-0.11375 0.1426,-0.16993 -0.01,-0.0313 -0.011,-0.0768 -0.02,-0.0879 z m -86.55076,4.08203 c -0.0169,0.0502 -0.0432,0.0956 -0.0547,0.14844 -0.25538,1.17233 -0.16332,2.86455 0.0527,4.76563 -2.8e-4,-1.63802 0.002,-3.27604 0.002,-4.91407 z m 98.21486,27.75586 c -2.4432,3.84114 -4.5698,7.79779 -5.9883,11.56836 -0.011,0.0297 -0.02,0.0601 -0.031,0.0899 1.3126,3.16571 0.8525,6.80016 -0.094,10.50976 0.303,0.24299 0.5713,0.44251 0.8887,0.70313 0.555,-3.80599 1.235,-7.59662 2.1133,-11.33985 0.5765,-2.45703 1.7951,-4.73109 2.3906,-7.18359 0.4096,-1.68687 0.6147,-3.04994 0.7207,-4.34766 z m -3.1875,22.91407 c -0.2709,0.32811 -0.5102,0.69069 -0.7617,1.03906 0.089,0.0751 0.1813,0.15216 0.2715,0.22851 0.089,-0.20327 0.1843,-0.45867 0.4902,-1.26757 z m -203.66017,18.41406 c -0.13158,0.0842 -0.15262,0.23664 0,0.49805 -1.6e-4,-0.16601 1.2e-4,-0.33204 0,-0.49805 z m 80.33985,11.37109 c -0.0136,0.36003 -0.0269,0.72002 -0.041,1.08008 0.0718,-0.35809 0.29034,-0.75543 0.0859,-1.03906 -0.0122,-0.017 -0.0307,-0.0265 -0.0449,-0.041 z m 13.77343,42.9531 c 0.0449,0.3588 0.0894,0.7395 0.11914,1.045 0.25663,1.115 0.38299,2.2692 0.77149,3.3457 0.2502,0.6933 -0.1985,-1.4626 -0.35156,-2.1836 -0.15752,-0.7402 -0.35021,-1.4737 -0.53907,-2.2071 z m -144.01172,140.6387 c 0.91431,1.386 1.96173,2.7165 2.66797,4.1895 0.11268,-1.2693 0.2975,-2.5352 0.57032,-3.7989 -0.48718,-0.046 -0.97337,-0.095 -1.46094,-0.1386 -0.59058,-0.053 -1.18428,-0.1692 -1.77735,-0.252 z m -27.41601,17.1133 c -0.58335,0.3388 -1.14966,0.6543 -1.66797,0.9199 0.56711,0.028 1.13355,0.043 1.69727,0.019 0.0376,-0.01 0.046,-0.012 0.084,-0.021 0.48204,-0.1251 0.79477,-0.2285 1.12891,-0.334 -0.32161,-0.1427 -0.84653,-0.3342 -1.24219,-0.584 z m -21.64258,3.9043 c 0.0291,0.086 0.0635,0.1694 0.0918,0.2558 0.19368,-0.078 0.38987,-0.1539 0.58398,-0.2304 -0.22521,-0.01 -0.4506,-0.016 -0.67578,-0.025 z m 63.03711,39.4179 c -2.75185,0.056 -5.50362,0.1133 -8.25586,0.1407 -2.86671,0.028 -5.73591,0.058 -8.60547,0.066 -1.36356,0.5025 -2.66726,1.0018 -3.82812,1.5254 -0.6357,0.2867 -1.25905,0.5967 -1.87891,0.916 5.27674,0.7132 4.6842,0.4421 14.42383,-0.1074 1.50255,1.2194 4.58466,-2.1237 6.23828,-2.3516 0.6319,-0.087 1.2694,-0.1372 1.90625,-0.1895 z m -102.4668,1.961 a 297.14286,295.71429 0 0 0 4.02539,0.8398 c -0.41055,-0.1035 -0.83541,-0.2112 -1.23828,-0.3105 -0.88497,-0.175 -1.756,-0.4681 -2.65625,-0.5254 -0.0436,-0 -0.0873,-0 -0.13086,-0 z m 26.03907,1.8926 c -0.0377,0.01 -0.0756,0.017 -0.11329,0.025 -0.67053,0.4582 -1.34696,0.6579 -2.00586,0.4082 -1.86394,0.3295 -3.79227,0.5454 -5.79492,0.6347 a 297.14286,295.71429 0 0 0 18.65625,2.2891 c -0.19387,-0.6052 -0.35964,-1.2021 -0.4707,-1.7852 -0.94394,0.025 -1.92341,-0.065 -2.94922,-0.3183 -2.43233,-0.4528 -4.91312,-0.7049 -7.32226,-1.2539 z" />
    <path
       style="fill:#f9f9f9;stroke-width:0.26458332"
       id="path169"
       d="m 110.2687,295.62332 c -2.06716,-0.42868 -4.17386,-0.7262 -6.13332,-1.56411 -0.99582,-0.42585 -1.96388,-1.07109 -2.88052,-1.63849 -2.343197,-1.69169 -3.71797,-3.9438 -4.492371,-6.67615 -0.519864,-2.71325 -0.470934,-5.48944 -0.478779,-8.23963 0.171119,-2.82011 0.48083,-5.62723 0.642009,-8.44878 0.139427,-2.74238 0.151783,-5.48931 0.153559,-8.23461 -0.0019,-2.52469 0.0053,-5.04932 0.0063,-7.57401 -0.182533,-2.76818 -0.470498,-5.5263 -0.601099,-8.29806 -0.03154,-2.49355 -0.354478,-5.04837 0.135332,-7.52171 0.115073,-0.58107 0.319027,-1.14095 0.478539,-1.71143 1.103839,-3.12615 3.80248,-4.73518 6.20992,-6.73744 2.03986,-1.77486 2.48622,-4.27519 2.7637,-6.82842 0.37396,-3.15602 -0.33621,-6.2123 -1.03942,-9.26115 -0.66544,-2.9777 -0.94435,-6.01024 -1.0731,-9.05177 -0.0632,-2.87719 -0.27195,-5.76745 0.25627,-8.60869 0.83445,-3.10936 2.53962,-5.85366 4.78205,-8.13368 8.69889,-5.66456 10.29227,-7.139 18.72681,-7.537 1.37238,-0.13979 1.48051,-0.0476 2.72197,-0.54944 0.3724,-0.15054 1.42683,-0.73778 1.07753,-0.53946 -15.04363,8.54121 -9.57107,6.7013 -7.38547,3.31542 1.15056,-2.91361 1.83984,-5.9699 2.729,-8.96336 1.105,-3.40149 2.21866,-6.80835 3.65315,-10.08746 1.88993,-3.47751 5.15183,-5.80962 8.46824,-7.81157 6.29553,-3.68062 12.64174,-7.97659 19.89816,-9.55971 3.24069,-0.52122 6.26263,0.80255 9.33586,1.60533 0.4193,0.0542 0.83513,0.16477 1.25792,0.16248 0.69475,-0.004 1.69015,-0.27467 2.31821,-0.55915 0.39157,-0.17736 1.49581,-0.84801 1.12193,-0.63587 -8.85398,5.02388 -11.06822,6.63927 -7.24091,3.94619 2.72245,-2.23064 5.11412,-4.79228 7.90841,-6.9386 4.5453,-3.1905 3.04765,-2.2011 12.30589,-7.27444 1.77905,-0.97488 3.69174,-0.3391 5.36987,0.43351 2.56786,1.68964 4.84422,3.70748 7.566,5.17437 1.75044,0.72272 3.66072,1.69029 5.61909,1.60093 0.86416,-0.0394 1.60837,-0.37541 2.40576,-0.66102 4.43622,-2.72934 -2.46525,1.53695 -7.40617,4.10637 -0.34532,0.17958 0.59102,-0.51039 0.84792,-0.8028 0.47025,-0.53524 0.90771,-1.34387 1.26336,-1.94408 0,0 10.20411,-4.5486 10.20411,-4.5486 v 0 c -0.39408,0.71528 -0.73083,1.46408 -1.17076,2.15211 -2.70805,4.23524 -8.05121,5.92932 -12.58643,7.84155 -0.44038,0.0917 -0.87398,0.22631 -1.32115,0.27515 -2.51881,0.2751 -4.95516,-0.91421 -7.16135,-1.95354 -2.64542,-1.50619 -4.91255,-3.50138 -7.53108,-5.02531 -1.23165,-0.39963 -2.2159,-0.62375 -3.49843,-0.21672 -0.43637,0.13849 -1.64893,0.78892 -1.25876,0.54943 14.71678,-9.0334 9.592,-5.72238 6.65565,-3.80651 -0.34631,0.25535 -2.57604,1.88788 -2.91328,2.18204 -1.71662,1.49733 -3.14407,3.32597 -4.94786,4.73283 -4.22015,3.44868 -1.62422,1.42808 -11.8447,7.12493 -1.57868,0.87994 -3.45866,0.81098 -5.14974,0.39584 -2.95762,-0.82451 -5.87872,-1.94111 -8.98653,-1.16722 -1.64374,0.44436 -3.21237,0.96262 -4.78315,1.62718 -3.54082,1.49805 -10.97834,5.58473 4.06098,-2.78724 -3.30299,1.83538 -6.56148,3.985 -8.70676,7.17098 -1.53283,3.19465 -2.60538,6.58722 -3.68599,9.95582 -0.5335,1.54987 -0.86845,3.12342 -1.32584,4.69669 -0.30453,1.04751 -0.68543,2.07195 -0.98465,3.12099 -0.11948,0.4189 -0.19727,0.84859 -0.2959,1.27288 -1.8542,4.88879 -6.03416,5.08902 -11.57809,8.22062 -1.17991,0.66649 -2.70342,0.61536 -3.99461,0.76158 -1.56986,0.10224 -3.13293,0.20631 -4.67132,0.5629 -3.87808,0.89894 -9.94496,5.11766 5.22766,-3.8355 -2.39077,1.94401 -4.08652,4.58434 -5.04811,7.51194 -0.75528,2.72187 -0.39287,5.55336 -0.39994,8.35016 0.11214,2.97825 0.32524,5.95839 0.96305,8.87783 0.70992,3.14576 1.53147,6.30084 1.22109,9.55899 -0.18609,2.69183 -0.50482,5.52818 -2.41772,7.5939 -2.18897,2.09119 -5.11723,3.33741 -6.48239,6.21091 -0.18628,0.50798 -0.4264,0.99934 -0.55884,1.52394 -0.60226,2.38564 -0.17245,4.91872 -0.20442,7.33816 0.13798,2.78543 0.38127,5.56072 0.64157,8.33697 0.004,2.52416 0.0193,5.04826 0.008,7.57242 -0.0195,2.76507 -0.0422,5.53041 -0.14508,8.29394 -0.14721,2.80564 -0.40393,5.60075 -0.67463,8.39644 -0.006,2.65594 -0.0462,5.33458 0.3759,7.96449 0.6232,2.4915 1.84196,4.49546 4.00698,5.97141 0.97746,0.57637 1.65508,1.03002 2.72101,1.44097 1.9538,0.75324 4.04765,1.01706 6.10636,1.30321 0,0 -9.15637,6.49893 -9.15637,6.49893 z"
       inkscape:connector-curvature="0" />
    <path
       style="fill:#f9f9f9;stroke-width:0.26458332"
       id="path171"
       d="m 73.099881,138.72771 c 0.524074,2.83474 1.630752,3.21521 4.286219,2.64369 3.247093,-1.17378 6.441575,-2.49591 9.699011,-3.65163 0.395509,-0.15212 0.807741,-0.2664 1.186529,-0.45637 0.210727,-0.10568 0.765797,-0.54936 0.566804,-0.42297 -3.247401,2.06276 -5.920235,5.8293 -9.752021,6.17278 -0.617185,0.0553 -1.239102,-0.0237 -1.858536,-0.0405 -2.723859,-0.0247 -5.447903,0.0108 -8.171617,0.0397 -2.466562,0.13715 -5.176348,-0.44782 -7.440908,0.77058 3.125488,-1.78142 6.347018,-3.40399 9.376462,-5.34423 0.158724,-0.10166 -0.252492,-0.33734 -0.216532,-0.52237 0.02487,-0.12793 0.221512,-0.16048 0.351372,-0.17145 0.263821,-0.0223 0.525989,0.0729 0.790744,0.0749 0.270775,0.002 1.860405,-0.1311 2.084232,-0.14895 3.234171,-0.34383 6.461479,-0.7101 9.709348,-0.9348 3.332639,-0.19192 6.670558,-0.22683 10.007621,-0.25098 3.848976,0.0706 7.363521,1.7142 10.860811,3.14514 1.82006,0.7881 3.55102,1.87034 5.52837,2.23955 0.3431,0.0641 0.72013,0.19051 1.04516,0.0633 0.21577,-0.0844 0.54468,-0.71619 0.341,-0.60574 -3.17584,1.7222 -6.23042,3.65918 -9.34563,5.48877 -0.0574,-0.11738 -0.077,-0.26269 -0.17229,-0.35214 -0.26646,-0.25017 -0.59268,-0.4279 -0.88796,-0.6433 -1.841789,-1.3436 -3.825642,-2.42935 -5.754047,-3.64233 -2.440888,-1.71592 -5.174711,-2.42209 -8.085156,-2.76922 -2.864033,-0.28728 -5.72488,-0.21217 -8.582708,0.0638 -2.800075,0.31684 -5.613889,0.43165 -8.42904,0.50001 -0.427162,0.0889 -0.877118,0.1028 -1.281486,0.26667 -0.379179,0.15367 -1.387742,0.86571 -1.028692,0.66957 2.903406,-1.5861 5.707632,-3.35701 8.664554,-4.84096 0.290539,-0.1458 -0.457258,0.48291 -0.580255,0.78382 -0.315905,0.77285 -0.09796,1.27001 0.05261,2.03538 1.204704,2.41311 3.093834,4.447 5.396574,5.82993 2.70201,1.27824 4.993926,-0.40096 7.428783,-1.46195 0,0 -8.745693,6.92651 -8.745693,6.92651 v 0 c -2.845673,1.26902 -5.069708,2.21803 -8.046535,0.55835 -2.468044,-1.6546 -4.544274,-3.87337 -5.873565,-6.55207 -0.258453,-0.98878 -0.530881,-1.65673 -0.398441,-2.70998 0.561266,-4.4635 10.050182,-7.07918 10.837211,-7.53157 0.370827,-0.21316 0.799293,-0.31554 1.217512,-0.40522 0.445598,-0.0956 0.906148,-0.0982 1.359223,-0.14735 2.799824,-0.0893 5.594392,-0.25884 8.381661,-0.54517 2.911946,-0.22062 5.838,-0.23006 8.741503,0.13063 3.002828,0.48038 5.793927,1.3998 8.301987,3.18381 2.01507,1.2414 5.5517,2.97163 7.05383,4.7126 0.26348,0.30537 0.39281,0.70454 0.58922,1.05681 -3.19162,2.1538 -6.31061,4.41936 -9.57487,6.46139 -0.26741,0.16728 -1.77405,-0.25195 -1.82078,-0.26629 -1.915293,-0.5876 -3.650899,-1.59837 -5.49478,-2.36156 -3.444846,-1.36107 -6.922699,-2.82246 -10.699856,-2.7321 -3.313229,0.0192 -6.628675,0.0663 -9.935541,0.28806 -3.274597,0.24425 -6.521783,0.70516 -9.792435,0.97698 -0.985367,0.0367 -2.192748,0.18184 -3.143187,-0.1859 -0.604927,-0.23406 -1.843688,-1.05617 -1.316021,-1.43338 3.123755,-2.23306 6.624994,-3.8842 9.93749,-5.8263 2.49827,-0.56775 5.065776,-0.33473 7.607253,-0.40503 2.744867,-0.0173 5.490927,-0.0806 8.235248,-0.007 0.565624,0.0386 1.564746,0.0509 2.126443,0.28611 4.736952,1.98385 -6.555438,6.61101 -10.117949,7.83583 -3.277778,1.19107 -6.487147,2.6575 -9.880166,3.46818 -0.483203,0.0141 -0.969029,0.0944 -1.449615,0.0422 -2.297838,-0.24951 -3.3298,-2.08988 -3.835961,-4.13789 0,0 9.947486,-5.20794 9.947486,-5.20794 z"
       inkscape:connector-curvature="0" />
  </g>
</svg>
